<?xml version="1.0" standalone="no"?>
<!DOCTYPE svg PUBLIC "-//W3C//DTD SVG 20010904//EN"
 "http://www.w3.org/TR/2001/REC-SVG-20010904/DTD/svg10.dtd">
<svg version="1.0" xmlns="http://www.w3.org/2000/svg"
 width="720.000000pt" height="720.000000pt" viewBox="0 0 720.000000 720.000000"
 preserveAspectRatio="xMidYMid meet">
<metadata>
Created by potrace 1.11, written by Peter Selinger 2001-2013
</metadata>
<g transform="translate(0.000000,720.000000) scale(0.100000,-0.100000)"
fill="#000000" stroke="none">
<path d="M620 7177 c-11 -18 -10 -19 9 -14 12 3 19 2 16 -3 -3 -4 4 -19 15
-31 23 -28 26 -10 5 30 -8 16 -12 31 -10 33 3 3 -1 5 -9 5 -7 0 -19 -9 -26
-20z"/>
<path d="M2045 7164 c-27 -19 -115 -98 -194 -177 -160 -159 -213 -232 -315
-435 -71 -142 -99 -230 -148 -457 l-31 -150 0 -390 c-1 -214 3 -422 7 -460 l7
-70 -208 -48 c-179 -41 -408 -112 -477 -149 -37 -19 -160 -126 -186 -160 -70
-92 -119 -235 -123 -355 -2 -66 1 -75 48 -168 45 -87 61 -108 152 -194 105
-98 249 -196 371 -252 57 -26 63 -31 56 -51 -3 -13 -10 -27 -14 -33 -8 -11
-38 -100 -44 -131 -14 -73 -5 -224 14 -224 4 0 10 -19 13 -42 3 -24 10 -68 16
-98 6 -30 14 -94 19 -141 6 -63 15 -94 30 -113 11 -15 24 -40 27 -56 4 -17 11
-30 16 -30 6 0 7 -4 4 -10 -3 -5 -1 -10 5 -10 6 0 9 -4 6 -9 -3 -4 1 -17 9
-27 8 -10 15 -26 15 -35 0 -9 6 -22 14 -28 19 -16 73 -155 81 -206 3 -22 10
-94 16 -160 16 -202 19 -217 44 -300 14 -44 24 -82 23 -85 -2 -3 7 -18 18 -35
12 -16 27 -47 33 -67 7 -21 17 -38 21 -38 5 0 7 -6 4 -14 -4 -12 0 -13 21 -7
22 5 28 13 30 39 2 21 -1 30 -9 25 -6 -4 -5 1 3 10 10 13 11 20 2 31 -9 11 -9
16 0 22 7 4 9 3 6 -3 -4 -6 0 -14 9 -17 11 -4 15 -2 11 8 -4 9 1 17 11 21 10
3 22 20 27 37 14 47 42 49 47 4 2 -19 0 -45 -4 -57 -5 -13 -4 -27 3 -35 7 -9
8 -14 1 -14 -13 0 -9 -45 5 -62 6 -7 16 -53 22 -103 19 -144 53 -305 63 -299
11 7 2 -281 -9 -298 -3 -6 -1 -8 5 -4 15 9 42 -22 42 -49 0 -13 5 -36 10 -50
13 -35 78 -95 104 -96 50 -3 111 3 121 11 7 6 14 7 18 4 3 -3 13 6 23 21 11
17 24 25 35 22 12 -3 19 3 23 19 15 57 58 6 60 -69 0 -43 1 -44 24 -36 23 9
23 8 16 -39 -4 -27 -19 -64 -35 -87 -16 -22 -34 -52 -40 -67 -6 -16 -17 -28
-25 -28 -8 0 -18 -8 -21 -17 -4 -10 -12 -22 -20 -26 -7 -4 -13 -13 -13 -20 0
-17 -46 -68 -54 -60 -3 3 -6 -6 -6 -21 0 -26 -2 -27 -37 -20 -31 6 -35 4 -30
-9 4 -11 2 -14 -9 -10 -7 3 -14 0 -14 -7 0 -6 -4 -8 -10 -5 -5 3 -10 1 -10 -4
0 -11 -149 -8 -236 5 -37 5 -45 4 -39 -6 5 -9 4 -11 -4 -6 -14 9 -40 13 -135
21 -38 3 -78 12 -90 20 -11 8 -34 15 -51 15 -16 0 -38 7 -49 15 -16 12 -21 12
-32 0 -8 -7 -14 -18 -14 -24 0 -6 -4 -11 -10 -11 -6 0 -6 9 0 25 5 14 8 25 7
26 -29 9 -43 5 -53 -16 -8 -17 -8 -27 -1 -34 8 -8 6 -11 -6 -11 -10 0 -17 -8
-17 -20 0 -11 6 -20 13 -20 9 0 9 -2 -1 -9 -9 -5 -22 0 -38 16 -29 29 -30 36
-4 28 18 -6 20 -3 17 17 -2 13 -2 17 0 11 3 -7 9 -13 14 -13 6 0 7 5 4 10 -4
6 -2 17 5 25 7 9 8 15 0 20 -5 3 -10 1 -10 -4 0 -6 -4 -11 -10 -11 -5 0 -10 9
-10 20 0 11 -7 20 -15 20 -8 0 -15 6 -16 13 0 6 -4 3 -9 -8 -7 -17 -9 -17 -9
-2 -1 9 -6 17 -11 17 -6 0 -8 -11 -4 -25 6 -23 -1 -30 -27 -27 -4 1 -4 -9 -1
-21 5 -18 7 -19 10 -5 2 10 10 18 19 18 13 0 13 -3 2 -16 -9 -11 -10 -17 -1
-23 12 -7 12 -51 0 -51 -4 0 -8 9 -8 20 0 11 -7 20 -15 20 -8 0 -15 8 -15 18
0 14 -7 17 -40 15 -44 -2 -58 8 -35 27 9 8 15 8 15 2 0 -6 -6 -12 -12 -15 -7
-3 3 -4 22 -3 19 0 33 5 32 10 -2 5 2 13 10 17 9 6 6 9 -10 9 -13 0 -21 -4
-17 -9 3 -5 1 -12 -4 -15 -5 -3 -11 1 -14 9 -5 12 -10 12 -36 -1 -45 -22 -40
-44 9 -44 25 0 40 -5 40 -12 0 -9 3 -8 9 1 8 12 12 9 22 -13 8 -17 9 -30 3
-34 -13 -10 -16 -32 -4 -32 5 0 7 -6 5 -13 -4 -8 5 -13 24 -13 23 -1 28 2 23
15 -5 14 -4 14 11 2 18 -14 22 -7 18 26 -1 6 4 15 10 19 7 4 10 2 7 -7 -3 -8
-1 -24 3 -37 5 -13 6 -21 1 -19 -10 6 -65 -26 -70 -41 -2 -7 1 -12 8 -12 6 0
9 4 6 9 -3 5 1 11 9 15 8 3 17 1 20 -4 4 -6 11 -10 16 -10 6 0 8 4 4 9 -3 5
-1 13 5 16 6 4 10 3 9 -2 -4 -25 1 -35 14 -24 15 12 27 5 27 -16 0 -7 -5 -12
-12 -11 -7 2 -12 -3 -13 -11 0 -18 -21 -26 -30 -12 -13 22 -23 10 -12 -14 12
-24 37 -35 37 -15 0 6 7 10 15 10 8 0 15 -9 15 -19 0 -11 5 -23 11 -27 7 -4 9
0 5 13 -4 14 -1 19 14 20 11 1 20 -2 20 -7 0 -5 16 -17 35 -26 19 -9 32 -20
29 -25 -3 -5 0 -9 6 -9 7 0 10 -7 6 -15 -3 -8 -1 -15 4 -15 6 0 10 7 10 15 0
8 7 15 16 15 8 0 12 -4 9 -10 -4 -6 3 -6 21 0 18 7 30 7 39 0 6 -5 14 -8 16
-6 2 2 5 -9 6 -25 1 -16 -1 -28 -5 -26 -8 2 -12 -6 -12 -24 0 -6 7 -3 16 6 9
8 14 24 12 33 -4 12 1 18 13 18 10 0 16 -3 13 -7 -2 -4 6 -5 18 -1 20 5 21 3
10 -10 -11 -13 -11 -18 0 -24 7 -4 10 -4 6 1 -4 4 -1 14 7 21 17 18 22 18 22
-1 0 -8 -3 -12 -7 -10 -4 2 -7 -9 -7 -25 0 -21 5 -28 18 -27 10 1 15 5 13 9
-3 4 0 8 5 8 6 0 11 -7 11 -16 0 -14 3 -14 15 -4 19 16 19 26 0 28 -8 1 -21 3
-29 4 -8 1 -12 7 -9 14 4 11 8 11 20 -1 18 -19 19 -19 27 1 4 12 2 15 -9 10
-9 -3 -15 0 -15 10 0 12 4 12 20 4 10 -6 17 -17 14 -24 -3 -8 5 -22 18 -31 23
-17 23 -17 1 -12 -12 3 -24 -1 -26 -7 -8 -21 47 -13 61 9 13 20 13 20 7 -1 -4
-15 -1 -21 12 -21 10 0 24 4 31 10 8 6 12 6 12 -2 0 -14 43 -14 57 0 8 8 13 8
17 0 4 -6 14 -11 22 -11 8 0 13 4 10 8 -3 5 1 9 9 9 8 0 15 -4 15 -9 0 -13 48
-9 53 5 4 9 6 9 6 0 1 -10 92 -12 396 -13 310 0 394 3 389 13 -6 9 -5 9 7 0 8
-6 40 -11 71 -11 45 1 55 4 50 16 -4 11 -1 13 8 7 9 -6 11 -4 5 5 -5 8 -3 11
6 8 8 -3 13 -12 11 -19 -3 -11 -1 -11 9 -2 10 10 16 10 28 0 12 -9 11 -6 -2
13 -20 28 -22 44 -5 34 7 -4 8 -3 4 5 -10 15 -29 3 -22 -15 6 -16 -10 -19 -19
-4 -4 6 -11 8 -16 5 -5 -4 -9 -1 -9 4 0 6 -5 11 -12 11 -9 0 -9 -3 0 -12 17
-17 15 -28 -5 -28 -15 0 -16 -2 -3 -10 12 -8 10 -9 -7 -7 -12 2 -26 7 -30 11
-5 4 -2 6 6 4 7 -1 16 3 19 11 3 10 0 12 -12 8 -10 -4 -15 -3 -11 3 3 6 1 10
-5 10 -6 0 -8 5 -5 10 5 8 12 7 23 -2 10 -8 13 -8 9 -1 -4 6 -2 13 3 15 15 5
20 40 7 56 -15 19 -2 25 16 8 8 -9 13 -24 10 -34 -2 -10 3 -24 11 -31 14 -11
16 -11 16 3 0 10 -4 14 -10 11 -5 -3 -10 1 -10 9 0 10 9 16 23 17 12 0 16 3 9
6 -6 2 -9 10 -5 16 4 7 -1 6 -10 -2 -15 -12 -17 -11 -17 3 0 9 -6 16 -14 16
-8 0 -16 8 -18 18 -3 12 -7 7 -15 -16 -7 -18 -8 -30 -3 -27 6 3 7 -1 4 -9 -5
-14 -8 -14 -21 -1 -8 9 -19 13 -24 10 -9 -6 -13 8 -10 34 2 7 -4 11 -11 9 -7
-3 -13 -9 -13 -14 0 -5 -4 -15 -8 -21 -8 -12 -2 -17 15 -14 4 0 5 -5 2 -13 -3
-9 3 -13 18 -13 48 -1 59 -3 53 -13 -5 -8 -11 -7 -21 1 -14 11 -18 2 -17 -38
0 -6 -5 -14 -12 -17 -10 -4 -12 5 -9 32 3 26 2 31 -4 17 -8 -17 -9 -17 -16 9
-7 27 -8 27 -21 10 -12 -15 -15 -16 -16 -4 -1 8 -3 20 -3 25 -1 6 -4 15 -7 20
-3 6 0 21 7 35 10 19 14 20 14 8 0 -22 1 -22 35 -4 15 8 35 12 44 8 14 -6 14
-7 -1 -10 -20 -4 -24 -27 -6 -38 8 -5 9 -2 5 9 -4 10 -2 16 6 14 7 -1 12 4 11
11 -4 47 -4 48 -14 32 -9 -13 -10 -13 -10 0 0 10 -3 11 -8 3 -5 -8 -13 -6 -29
7 -20 16 -21 19 -8 30 13 11 14 10 9 -4 -6 -17 2 -20 44 -16 12 1 22 -3 22 -8
0 -6 8 -13 18 -17 14 -5 15 -4 5 6 -15 15 -17 33 -4 24 5 -3 13 0 17 7 4 7 4
10 -1 6 -4 -4 -16 -3 -26 2 -12 7 -19 6 -22 -3 -4 -9 -6 -9 -6 1 -1 6 -6 12
-12 12 -5 0 -7 -5 -3 -12 5 -7 3 -8 -6 -3 -10 6 -9 11 5 21 10 7 22 11 26 8 4
-2 13 5 19 16 12 22 1 27 -18 8 -9 -9 -12 -9 -12 -1 0 7 16 17 35 24 19 7 35
17 35 22 0 4 -4 5 -10 2 -6 -4 -7 1 -3 11 4 12 3 15 -5 10 -7 -4 -12 -13 -12
-21 0 -10 -9 -11 -35 -5 -31 7 -35 6 -35 -12 0 -10 -5 -16 -10 -13 -6 4 -8 11
-5 16 4 5 1 9 -5 9 -6 0 -8 5 -5 10 4 6 11 7 17 4 8 -5 9 -1 4 12 -5 10 -9 25
-9 32 0 6 -5 12 -10 12 -5 0 -4 7 3 15 7 9 19 14 27 11 8 -4 20 7 30 29 12 26
20 32 29 24 9 -8 11 -5 7 13 l-5 23 16 -22 c19 -26 46 -30 46 -8 0 8 -8 15
-17 15 -15 0 -15 2 -4 9 18 12 36 -6 38 -39 2 -19 0 -21 -7 -10 -7 11 -10 11
-10 2 0 -7 -4 -11 -9 -7 -5 3 -12 1 -16 -5 -3 -5 -11 -10 -16 -10 -6 0 -8 4
-5 9 3 5 -1 12 -10 15 -23 9 -27 8 -20 -9 3 -9 -3 -19 -15 -25 -11 -6 -17 -15
-13 -21 4 -6 11 -6 20 2 11 9 14 8 14 -2 0 -8 4 -20 9 -28 8 -12 12 -12 25 2
21 21 22 44 1 27 -26 -22 -26 -5 0 18 l24 21 30 -24 c16 -14 39 -25 52 -24 22
0 23 1 4 8 -11 5 -24 6 -29 3 -5 -2 -6 1 -4 9 3 8 1 23 -5 34 -6 11 -10 30 -8
43 2 14 -3 22 -13 22 -9 0 -16 6 -16 13 0 8 -3 8 -8 2 -10 -15 -29 -13 -44 5
-11 12 -11 12 4 1 14 -10 20 -9 39 10 16 16 21 18 16 6 -5 -13 -1 -17 16 -17
13 0 31 -6 41 -13 16 -12 16 -14 -3 -36 -20 -23 -19 -48 2 -48 7 0 23 -3 36
-7 16 -6 21 -5 17 3 -4 6 -16 11 -26 11 -23 0 -20 25 6 46 16 13 16 15 2 10
-10 -3 -17 -2 -16 2 3 18 -16 42 -34 42 -13 0 -18 6 -16 17 5 25 25 27 31 2 4
-13 10 -18 18 -13 7 4 10 3 6 -3 -4 -6 0 -16 8 -23 13 -11 14 -10 9 4 -4 11
-1 16 11 16 9 0 14 -4 11 -9 -3 -4 12 -7 34 -5 22 2 40 -1 40 -7 0 -5 5 -9 11
-9 8 0 8 4 2 13 -5 6 -8 18 -7 25 1 6 2 16 3 21 0 5 12 8 26 6 14 -1 25 2 25
6 0 8 -30 14 -52 10 -4 0 -5 8 -3 19 2 12 0 18 -4 15 -8 -4 -21 16 -21 31 0
13 24 0 51 -28 17 -18 36 -33 42 -33 6 0 12 -7 14 -15 4 -13 3 -13 -7 0 -10
13 -11 13 -7 -2 4 -12 1 -16 -11 -14 -9 2 -26 0 -37 -4 -16 -6 -13 -8 17 -11
32 -4 38 -1 54 25 9 16 12 26 5 22 -6 -4 -11 -1 -11 8 0 9 6 15 13 14 6 -2 11
3 9 10 -1 6 3 12 9 12 6 0 9 -9 6 -19 -3 -13 1 -21 12 -24 13 -4 13 -5 -2 -6
-10 0 -15 -5 -12 -11 3 -5 0 -11 -7 -11 -7 -1 7 -5 32 -9 25 -4 47 -3 48 1 2
5 11 1 20 -9 10 -10 16 -16 15 -14 -1 2 8 14 19 27 12 14 28 21 41 19 12 -2
16 -2 10 2 -10 4 -9 9 3 21 8 8 12 18 9 21 -3 4 -10 0 -15 -8 -6 -8 -10 -11
-10 -5 0 5 -7 0 -15 -12 -9 -13 -22 -20 -30 -16 -11 4 -13 1 -9 -11 7 -18 -7
-21 -23 -5 -7 7 -13 7 -17 1 -3 -6 -15 -8 -26 -5 -11 3 -17 9 -14 15 3 5 0 16
-7 24 -6 8 -8 18 -4 22 4 4 10 2 12 -4 2 -6 10 -20 18 -30 14 -17 14 -16 5 11
-11 28 -11 29 8 11 15 -13 22 -14 28 -5 4 8 3 10 -4 5 -8 -5 -12 0 -12 13 0
11 -5 23 -10 26 -6 4 -8 11 -5 16 4 5 1 9 -6 9 -10 0 -10 3 -1 12 8 8 15 8 26
-1 10 -8 16 -9 21 -1 6 10 -1 14 -18 11 -5 -1 -6 2 -3 7 3 5 -4 8 -16 8 -12
-1 -23 4 -25 10 -2 6 18 10 54 9 47 0 58 -4 58 -17 0 -9 4 -19 8 -22 4 -3 5
-3 2 0 -7 10 15 44 28 43 9 0 9 -2 0 -6 -16 -6 -17 -39 -2 -49 8 -4 7 -9 -2
-15 -11 -7 -11 -9 1 -9 13 0 13 -2 0 -11 -12 -9 -12 -10 3 -5 10 3 28 6 38 6
11 0 18 4 14 10 -3 5 -12 7 -20 4 -12 -5 -13 -1 -4 25 9 27 13 29 30 18 15 -9
18 -19 13 -40 -3 -16 -1 -34 7 -43 10 -12 9 -13 -7 -8 -15 6 -17 4 -7 -6 22
-24 39 6 20 37 -4 7 -3 21 2 31 6 11 8 21 6 24 -2 2 5 4 15 4 11 0 20 -5 20
-11 0 -5 4 -4 9 4 6 9 11 10 15 2 4 -6 4 -11 -1 -11 -10 0 19 -20 30 -20 5 0
6 4 2 9 -3 5 12 9 32 8 26 -1 37 2 35 11 -1 6 2 12 8 12 5 0 10 -7 10 -15 0
-18 12 -19 28 -3 15 15 42 19 42 7 0 -4 8 -5 17 -2 12 5 15 2 10 -10 -4 -11
-2 -14 8 -10 8 3 13 9 10 13 -3 5 8 8 24 8 17 -1 29 -4 26 -7 -2 -4 4 -7 13
-7 9 -1 24 -3 32 -5 10 -3 14 2 14 14 -2 15 1 16 13 5 10 -8 11 -14 4 -16 -22
-7 -10 -22 17 -20 39 2 45 8 30 26 -11 15 -11 15 3 5 9 -7 20 -9 25 -5 4 4 3
0 -3 -8 -9 -12 -8 -20 4 -35 15 -19 15 -19 9 -1 -4 12 -1 23 6 28 18 11 30 10
23 -2 -3 -6 -1 -10 4 -10 6 0 11 7 11 15 0 9 6 12 17 8 10 -4 14 -2 10 4 -5 7
0 9 13 6 14 -4 20 0 20 12 0 14 3 15 15 5 9 -8 15 -9 15 -2 0 6 9 9 20 7 11
-2 22 0 25 6 4 5 17 9 30 9 19 0 23 -4 19 -18 -5 -16 -5 -16 9 0 10 13 16 15
25 6 9 -9 12 -9 12 2 0 13 2 13 10 0 6 -9 10 -10 10 -3 0 6 7 19 16 27 18 19
119 22 130 4 4 -6 3 -8 -4 -4 -6 3 -13 2 -17 -4 -3 -5 3 -10 14 -10 12 0 21 6
21 13 0 8 4 7 10 -3 7 -11 10 -11 10 -2 0 7 5 10 10 7 6 -3 10 -1 10 6 0 7 10
9 25 7 20 -4 25 -1 26 16 0 21 1 21 9 1 8 -18 9 -18 10 5 1 23 2 23 10 5 5
-11 9 -14 9 -7 1 6 10 12 21 12 11 0 23 7 27 16 5 13 7 13 14 2 6 -9 9 -6 9
12 0 18 3 21 9 11 5 -8 11 -9 15 -3 4 6 -1 15 -11 20 -14 9 -15 12 -2 24 8 8
24 14 37 13 13 -1 28 7 37 22 9 13 22 23 29 23 8 0 16 5 18 11 2 5 12 11 23
13 11 2 25 12 30 23 18 36 36 52 51 46 16 -6 18 5 5 26 -6 9 -10 10 -16 2 -5
-8 -13 -5 -27 11 l-21 23 6 -22 c6 -27 -1 -29 -20 -5 -14 16 -14 16 -9 -1 3
-9 1 -17 -5 -17 -6 0 -7 -6 -4 -12 4 -7 0 -5 -8 4 -8 10 -17 15 -20 11 -4 -3
-7 -1 -7 7 0 10 -3 10 -15 0 -12 -10 -16 -9 -21 4 -4 9 -15 14 -28 12 -11 -2
-15 -1 -8 1 6 3 12 8 12 13 0 14 -18 21 -25 11 -3 -6 -13 -7 -22 -4 -10 4 -14
2 -10 -4 4 -6 0 -16 -8 -23 -11 -9 -16 -7 -27 9 -16 25 -30 28 -21 3 3 -9 3
-14 -1 -11 -4 4 -8 16 -11 27 -2 15 0 19 11 15 9 -3 14 1 14 13 0 11 -4 15 -8
9 -4 -5 -22 -11 -41 -13 -27 -2 -32 1 -27 13 3 9 -1 18 -9 21 -8 4 -12 10 -9
15 3 5 0 9 -5 9 -6 0 -11 -4 -11 -9 0 -5 -9 -11 -20 -14 -11 -3 -18 -1 -14 4
3 5 -2 9 -10 9 -8 0 -17 8 -19 17 -4 17 -5 17 -6 1 0 -10 -5 -18 -9 -18 -5 0
-7 18 -6 40 2 33 -1 39 -12 30 -7 -7 -18 -9 -25 -5 -8 6 -8 2 0 -13 9 -16 8
-20 -4 -18 -8 1 -18 6 -22 11 -4 4 -2 5 6 0 10 -6 11 -2 5 16 -4 13 -7 29 -7
35 0 7 -11 9 -34 4 -18 -4 -31 -5 -29 -1 2 3 -2 15 -10 26 -9 12 -14 14 -14 5
0 -10 -5 -8 -19 4 -11 10 -26 16 -33 13 -8 -4 -7 -6 5 -6 9 -1 17 -5 17 -11 0
-5 -11 -9 -24 -8 -14 1 -22 6 -20 10 3 4 -1 8 -9 8 -12 0 -27 -40 -31 -83 -1
-5 -10 -15 -20 -23 -17 -12 -18 -14 -3 -14 24 0 21 -27 -3 -35 -23 -7 -43 2
-34 16 3 6 -3 5 -15 -3 -23 -14 -28 -28 -9 -28 6 0 9 -2 6 -5 -3 -3 -22 4 -42
16 -34 20 -36 20 -36 2 0 -10 -3 -14 -8 -8 -4 6 -23 10 -41 9 -28 -1 -37 -6
-44 -27 -5 -17 -16 -27 -28 -27 -11 0 -17 -4 -14 -10 3 -5 1 -10 -4 -10 -6 0
-11 5 -11 10 0 6 -4 10 -9 10 -5 0 -7 -9 -4 -20 5 -17 3 -18 -21 -7 -19 8 -25
18 -22 31 3 13 2 16 -5 9 -6 -6 -11 -17 -12 -24 -4 -22 -17 -39 -30 -39 -8 0
-8 3 1 9 11 7 11 9 -2 14 -11 5 -16 0 -16 -14 0 -11 -5 -17 -10 -14 -6 4 -7
11 -4 17 5 7 1 9 -9 5 -11 -4 -17 -1 -17 8 0 8 -5 15 -11 15 -6 0 -9 -7 -5
-15 4 -11 -2 -15 -22 -15 -21 0 -24 -2 -12 -10 12 -7 10 -9 -7 -7 -17 1 -19 4
-11 14 6 7 14 13 19 13 5 0 19 10 31 22 19 19 19 21 2 13 -10 -4 -27 -8 -36
-9 -9 0 -14 -4 -12 -8 3 -4 0 -8 -5 -8 -6 0 -11 5 -11 11 0 8 -5 8 -15 -1 -12
-10 -15 -9 -15 4 0 10 -4 14 -10 11 -5 -3 -10 -15 -10 -27 0 -18 -2 -19 -16
-7 -15 12 -16 11 -10 -8 8 -24 -11 -43 -20 -19 -6 15 -21 15 -66 -3 -18 -7
-29 -7 -33 0 -4 5 -12 6 -18 2 -18 -11 -47 -11 -54 0 -3 6 -1 7 5 3 7 -4 12
-3 12 3 0 6 6 8 14 5 17 -6 31 12 16 21 -5 3 -10 2 -10 -4 0 -14 -27 -7 -50
14 -20 19 -21 19 -14 -1 4 -14 4 -16 -4 -5 -6 8 -9 23 -6 34 3 18 2 18 -15 3
-9 -9 -23 -16 -30 -16 -7 0 -9 -6 -6 -13 4 -6 -1 -3 -10 8 -9 11 -18 19 -20
18 -17 -10 -27 0 -23 22 4 20 1 26 -18 31 -13 3 -24 14 -25 23 0 13 -2 14 -6
1 -11 -29 -43 -40 -43 -15 0 8 -4 16 -10 16 -5 1 -16 2 -22 3 -7 1 -12 7 -11
12 1 6 -5 11 -13 11 -10 0 -12 -7 -8 -21 6 -19 5 -19 -15 3 -25 28 -26 35 -7
50 11 9 15 9 19 -1 4 -9 6 -9 6 -1 2 22 -21 25 -40 5 -11 -12 -15 -23 -9 -27
16 -10 11 -25 -7 -25 -10 0 -27 -7 -37 -15 -19 -15 -19 -15 5 -15 19 0 21 -2
9 -10 -13 -9 -13 -10 0 -10 12 0 13 -2 1 -9 -8 -5 -10 -14 -6 -21 5 -9 4 -11
-3 -6 -7 4 -12 1 -12 -6 0 -10 -2 -10 -9 1 -5 8 -17 16 -26 17 -9 1 -20 6 -23
10 -4 4 1 4 11 1 9 -4 17 -2 17 3 0 6 -5 10 -12 10 -6 0 -9 2 -6 5 8 8 39 -6
33 -15 -3 -5 -1 -11 5 -15 5 -3 10 3 10 14 0 11 -5 23 -11 26 -6 4 -8 14 -5
22 4 9 1 22 -6 30 -9 11 -9 16 2 23 12 7 11 10 -3 16 -9 3 -14 11 -10 18 4 6
-1 5 -10 -3 -19 -15 -23 -36 -5 -25 8 5 9 2 5 -10 -4 -10 -7 -20 -7 -22 0 -2
-5 -4 -11 -4 -5 0 -8 4 -4 9 3 5 1 12 -4 16 -6 3 -8 -5 -5 -19 4 -24 3 -25
-26 -14 -23 8 -28 13 -20 23 7 9 6 15 -3 23 -10 8 -12 5 -12 -13 1 -13 7 -30
13 -38 10 -12 9 -16 -8 -20 -11 -3 -18 -2 -16 1 2 4 -3 21 -10 37 -7 17 -13
24 -14 18 0 -7 -5 -13 -11 -13 -5 0 -8 4 -5 9 4 5 0 12 -6 14 -7 3 -4 6 7 6
16 1 17 3 5 11 -9 6 -17 5 -21 -2 -9 -14 -29 -1 -29 18 0 8 9 14 22 14 12 0
19 3 15 6 -3 4 -22 3 -42 0 -26 -5 -35 -11 -31 -21 3 -8 1 -17 -4 -20 -6 -4
-10 1 -10 10 0 10 -6 15 -13 12 -8 -3 -14 1 -14 8 0 7 6 11 13 8 7 -3 23 2 36
11 25 18 17 22 -12 6 -14 -7 -19 -5 -23 10 -5 21 -29 28 -24 8 1 -7 -9 -14
-23 -15 l-25 -2 25 7 c17 5 21 10 13 15 -10 6 -8 13 6 28 11 12 22 30 25 42 5
21 5 21 -9 3 -8 -11 -15 -23 -15 -28 0 -4 -4 -8 -10 -8 -5 0 -10 7 -10 15 0 8
-5 15 -11 15 -6 0 -9 7 -5 15 3 8 1 15 -4 15 -6 0 -10 -7 -10 -16 0 -8 -5 -12
-10 -9 -7 4 -9 -3 -4 -22 l6 -28 -17 23 c-9 13 -14 26 -11 30 4 3 -4 12 -16
19 -13 7 -17 12 -9 13 8 0 11 6 7 16 -4 9 -1 26 7 38 15 25 16 52 0 49 -6 -1
-14 9 -17 22 -4 14 -11 25 -17 25 -6 0 -7 5 -4 11 5 6 12 4 21 -8 10 -13 13
-14 9 -2 -6 15 20 89 31 89 3 0 4 -6 1 -13 -3 -8 7 -13 32 -14 27 -1 31 1 16
7 -11 4 -23 6 -27 3 -5 -2 -8 3 -8 11 0 24 -29 19 -35 -7 -4 -16 -14 -22 -35
-23 -16 -1 -28 2 -25 5 2 4 0 13 -5 21 -6 10 -8 1 -7 -27 1 -23 1 -40 -2 -38
-2 3 -11 0 -18 -7 -11 -9 -17 -9 -24 3 -15 23 -10 36 6 15 8 -11 15 -18 16
-15 6 27 5 78 -2 74 -5 -4 -6 1 -3 10 4 10 13 13 24 10 15 -5 17 -1 14 17 -2
13 -2 17 2 11 3 -7 10 -13 15 -13 6 0 8 4 4 10 -9 15 17 49 33 42 10 -4 13 0
8 14 -3 10 -2 25 3 33 7 10 9 8 8 -10 0 -13 2 -31 4 -39 2 -9 -2 -14 -10 -12
-23 5 -43 -18 -30 -34 9 -11 8 -14 -4 -14 -8 0 -14 -6 -13 -12 2 -15 15 -22
18 -10 1 4 12 16 23 27 26 26 52 70 34 59 -9 -5 -10 -2 -6 10 4 10 3 15 -3 11
-13 -8 -13 1 1 27 6 12 7 18 1 14 -5 -3 -15 1 -22 9 -7 8 -15 13 -19 11 -9 -6
-46 22 -39 29 3 3 12 -1 21 -9 13 -14 16 -14 21 0 3 8 10 13 15 10 5 -3 9 10
8 29 -1 24 -6 35 -16 35 -14 0 -14 1 -1 10 11 7 12 10 2 10 -8 0 -12 6 -9 13
2 6 10 11 16 9 17 -3 7 51 -10 56 -11 3 -11 2 1 -7 12 -9 12 -11 -3 -17 -9 -3
-15 -10 -12 -14 3 -5 -5 -6 -17 -4 -13 2 -17 2 -10 -2 6 -3 9 -10 6 -15 -3 -6
0 -16 6 -24 16 -19 1 -19 -23 -1 -11 9 -14 17 -8 20 6 4 8 13 4 21 -3 10 1 15
12 15 15 0 15 2 1 15 -8 8 -23 12 -33 9 -15 -5 -15 -4 -3 5 8 6 11 11 5 11 -5
0 -2 7 9 15 18 13 17 14 -8 21 -14 3 -38 7 -53 7 -30 2 -55 25 -45 42 4 5 5
20 3 33 -1 12 2 22 8 22 15 0 23 -18 11 -25 -7 -5 -5 -12 7 -22 10 -8 13 -12
8 -9 -6 2 -17 1 -25 -5 -12 -7 -10 -9 7 -9 12 0 25 5 29 12 5 8 10 6 15 -8 7
-17 8 -17 8 4 1 16 -5 22 -19 22 -11 0 -20 5 -20 11 0 5 6 7 13 3 9 -5 9 -4 0
6 -6 7 -9 18 -7 25 3 7 0 16 -7 21 -7 4 -10 3 -7 -2 3 -5 -9 -17 -28 -26 -19
-10 -34 -13 -34 -8 0 6 4 10 10 10 11 0 7 56 -5 68 -5 4 -5 1 -1 -6 10 -17 -9
-15 -28 3 -13 14 -18 13 -40 -10 -18 -18 -26 -21 -26 -11 0 8 6 17 13 19 9 4
9 6 0 6 -7 1 -14 11 -14 24 -1 12 -5 2 -9 -23 -4 -25 -4 -50 1 -56 14 -17 -14
-37 -29 -22 -18 18 -15 28 6 21 15 -6 15 -5 3 10 -9 11 -10 17 -2 17 6 0 11 4
11 9 0 5 -9 7 -19 4 -13 -3 -18 -11 -14 -21 3 -13 0 -11 -14 4 -18 20 -20 20
-43 5 -23 -15 -23 -15 -17 8 3 12 3 20 0 17 -4 -3 -12 -1 -19 5 -8 7 -14 7
-19 -1 -3 -5 2 -10 12 -11 14 0 13 -2 -5 -10 -13 -5 -27 -7 -32 -4 -9 5 -28
-15 -29 -30 0 -5 -6 -11 -14 -13 -8 -2 -15 3 -14 10 1 36 -4 59 -13 53 -6 -4
-7 1 -3 11 5 13 3 15 -8 9 -12 -8 -12 -6 0 8 8 10 16 15 19 12 3 -3 11 0 19 7
11 9 13 8 11 -3 -2 -10 10 -15 47 -17 50 -3 59 4 14 12 -13 2 -26 5 -29 6 -3
2 -8 2 -12 1 -4 0 -5 5 -2 13 3 8 1 17 -5 21 -6 3 -11 1 -11 -6 0 -7 -3 -9 -7
-5 -5 4 -8 17 -8 28 0 12 -6 23 -14 26 -9 3 -11 0 -6 -8 5 -9 4 -11 -3 -6 -18
11 -14 26 7 26 11 0 23 5 26 10 4 6 11 8 16 5 5 -3 6 2 2 11 -6 16 -7 16 -18
0 -13 -17 -35 -22 -35 -8 0 4 5 13 12 20 7 7 9 12 5 12 -4 0 -3 9 3 19 7 14 7
22 -2 27 -6 4 -8 3 -5 -3 3 -5 -4 -9 -16 -7 -12 1 -26 3 -30 3 -5 1 -5 6 -2
12 4 6 13 8 21 5 7 -3 16 -1 20 5 4 6 11 5 22 -3 13 -11 14 -11 4 8 -6 12 -10
23 -9 25 1 2 -3 -2 -9 -9 -18 -19 -39 -5 -41 28 -1 18 2 28 8 25 5 -4 7 -10 4
-15 -3 -5 -2 -11 3 -14 14 -8 35 11 39 36 2 17 1 19 -6 8 -5 -8 -7 -18 -4 -23
3 -5 0 -7 -8 -5 -8 3 -13 13 -11 23 2 9 -1 15 -5 12 -5 -3 -15 -2 -23 4 -11 6
-11 9 -2 10 6 1 17 2 24 3 16 2 21 23 7 32 -9 5 -10 2 -6 -10 4 -9 3 -15 -2
-12 -5 3 -8 17 -8 31 0 15 4 22 11 18 6 -4 5 1 -3 11 -10 12 -16 13 -21 6 -5
-8 -9 -6 -13 5 -4 9 -3 13 3 10 6 -3 10 -1 10 5 0 6 6 8 13 4 6 -4 2 4 -10 18
-13 13 -23 28 -23 34 0 5 5 2 10 -6 7 -11 10 -11 10 -2 0 7 5 10 12 6 7 -4 8
-3 4 4 -4 7 -13 12 -20 12 -11 0 -13 18 -7 73 1 5 5 6 10 2 5 -3 12 -1 15 4 4
5 -4 11 -16 13 -26 4 -32 54 -8 69 11 7 7 7 -12 3 -18 -4 -28 -2 -28 6 0 6 5
8 10 5 6 -3 10 0 10 9 0 8 -6 16 -12 18 -8 3 -12 22 -10 52 1 26 -3 57 -9 67
-6 13 -6 19 1 19 5 0 10 5 10 11 0 5 -4 7 -10 4 -6 -4 -7 2 -1 17 6 15 5 31
-1 42 -5 9 -7 24 -4 32 3 8 2 14 -2 14 -4 0 -7 27 -7 60 0 33 4 60 9 60 5 0 3
6 -3 14 -9 11 -9 15 1 20 10 5 10 7 1 12 -8 4 -9 13 -3 30 5 13 6 24 2 25 -4
0 3 4 16 9 12 5 22 15 22 22 0 9 -3 9 -11 -2 -9 -13 -10 -13 -6 1 3 9 1 21 -5
27 -6 6 -3 14 10 23 11 8 19 17 18 21 0 3 3 10 8 15 5 5 6 2 1 -5 -5 -10 -1
-13 16 -10 18 2 24 9 24 30 0 32 10 45 18 23 4 -8 2 -15 -4 -15 -6 0 -7 -4 -4
-10 10 -16 23 -11 20 8 -1 9 3 23 9 31 8 12 8 13 -2 7 -13 -8 -42 9 -42 25 0
5 9 9 20 9 11 0 20 -5 20 -11 0 -16 23 -5 26 13 3 22 -12 43 -20 29 -4 -6 -2
-11 4 -11 6 0 9 -4 6 -9 -7 -10 -46 -3 -46 9 0 4 8 11 17 14 15 6 15 8 3 16
-12 8 -12 10 4 10 16 0 16 2 -5 20 l-24 21 25 -13 c14 -7 28 -17 31 -21 3 -5
9 2 13 15 5 18 8 20 15 9 5 -7 13 -11 19 -7 5 3 12 -1 16 -9 3 -8 1 -17 -4
-20 -4 -3 -10 1 -13 7 -2 7 -4 1 -4 -15 0 -25 1 -26 14 -10 13 17 14 17 9 1
-3 -10 0 -20 5 -24 7 -4 9 4 7 22 -2 17 2 29 11 32 8 3 11 0 7 -7 -4 -7 -1 -9
8 -5 22 8 8 33 -15 27 -25 -7 -24 -2 6 33 14 16 25 34 25 40 0 6 7 17 15 24 8
7 12 17 9 22 -3 5 -12 1 -21 -9 -13 -17 -13 -16 -3 5 6 13 16 20 23 15 18 -11
58 -13 52 -2 -4 5 -14 9 -23 9 -16 1 -16 2 1 14 10 8 15 20 11 30 -5 14 -9 14
-22 4 -13 -11 -14 -11 -7 2 6 8 10 17 11 20 3 18 18 40 25 40 5 0 4 -9 -3 -20
-11 -17 -10 -22 1 -29 8 -5 21 -7 30 -4 12 3 12 2 -1 -7 -10 -6 -18 -16 -18
-22 0 -6 12 -2 28 7 15 10 24 14 20 10 -4 -5 -3 -14 3 -22 9 -9 8 -13 0 -13
-6 0 -11 -12 -11 -26 0 -23 -3 -25 -30 -19 -24 5 -29 4 -24 -8 3 -8 0 -18 -7
-23 -8 -4 -10 -3 -5 4 4 7 3 12 -2 12 -5 0 -9 -14 -8 -32 1 -25 8 -34 31 -44
17 -7 33 -10 38 -7 4 2 7 -5 7 -17 0 -18 -3 -19 -21 -10 -11 7 -23 9 -27 6 -3
-3 0 -6 6 -6 7 0 12 -7 12 -16 0 -8 5 -12 10 -9 6 3 17 -1 26 -9 14 -15 14
-16 -4 -16 -27 0 -44 -22 -30 -40 8 -13 9 -12 4 2 -6 20 17 30 62 24 19 -2 29
1 26 6 -4 6 3 8 17 3 19 -5 21 -4 9 4 -13 9 -9 14 10 13 3 0 5 12 5 28 0 16
-4 26 -10 23 -5 -3 -4 0 3 8 6 7 12 25 12 40 0 14 7 45 15 68 8 23 11 49 8 58
-4 9 -2 14 3 10 8 -5 80 120 75 130 0 2 23 27 52 57 61 62 122 95 244 132 116
35 325 40 413 10 229 -78 354 -189 415 -369 95 -283 -98 -626 -387 -688 -119
-26 -329 9 -453 74 -234 125 -304 353 -183 595 70 140 181 232 313 260 65 14
207 1 296 -27 126 -40 256 -149 306 -257 34 -75 30 -175 -12 -260 -60 -123
-220 -237 -350 -250 -151 -16 -304 58 -370 177 -26 47 -30 64 -30 129 1 93 31
163 102 232 84 81 178 116 276 104 106 -14 187 -66 231 -146 24 -44 28 -61 24
-106 -6 -72 -49 -139 -113 -179 -42 -26 -58 -30 -119 -30 -61 0 -79 4 -126 31
-65 37 -100 83 -100 133 0 67 61 133 136 147 45 8 113 -13 146 -46 57 -57 23
-140 -58 -140 -45 0 -82 38 -53 55 6 4 19 -2 30 -14 23 -25 42 -27 59 -7 20
25 7 59 -29 80 -31 18 -37 18 -75 5 -109 -38 -72 -179 53 -196 52 -7 123 26
151 71 25 41 26 105 3 153 -37 78 -156 126 -254 103 -145 -35 -224 -196 -155
-314 69 -119 272 -178 398 -117 66 32 154 129 171 189 32 106 -17 245 -111
318 -48 36 -139 70 -218 80 -104 13 -239 -42 -323 -131 -197 -209 -149 -492
104 -611 137 -65 274 -65 410 0 124 59 231 170 276 286 30 76 30 186 1 260
-60 151 -237 294 -419 336 -81 19 -241 21 -303 4 -157 -42 -303 -191 -368
-372 -37 -105 -42 -239 -12 -327 54 -161 201 -284 413 -345 179 -52 344 -43
485 26 80 39 199 154 250 240 92 156 113 327 59 484 -15 45 -43 108 -62 140
-68 116 -208 218 -374 274 -104 35 -303 37 -418 5 -10 -3 -2 2 17 11 58 27
200 54 286 54 126 0 274 -45 365 -112 15 -11 32 -17 38 -14 6 4 9 1 6 -6 -2
-7 10 -24 28 -38 17 -14 28 -19 24 -12 -5 7 -3 12 4 12 7 0 5 9 -7 23 l-19 22
23 -19 c12 -11 22 -14 22 -8 0 6 8 9 18 6 14 -5 14 -4 2 4 -8 6 -17 9 -20 7
-3 -2 -11 5 -18 16 -11 16 -9 19 8 19 11 0 20 -6 20 -12 0 -10 2 -10 8 0 6 9
14 4 30 -18 18 -24 20 -30 7 -30 -8 0 -15 -5 -15 -11 0 -8 -5 -7 -15 1 -9 7
-18 10 -22 6 -14 -14 -12 -47 2 -52 8 -4 15 -12 15 -19 0 -8 17 -28 38 -46 20
-17 31 -28 25 -25 -19 11 -15 -8 6 -31 11 -12 17 -24 14 -27 -4 -3 -1 -6 6 -6
8 0 11 -7 7 -15 -6 -18 -1 -19 25 -5 22 12 26 32 5 24 -9 -4 -20 6 -31 25 -10
20 -12 31 -4 31 6 0 13 -9 16 -20 7 -26 30 -26 38 0 4 11 11 17 17 14 7 -4 8
-2 4 5 -6 9 -11 9 -24 -1 -13 -11 -15 -11 -10 4 9 22 -1 29 -25 17 -15 -9 -18
-8 -11 3 28 45 -4 73 -43 37 -24 -23 -33 -14 -10 10 10 11 10 13 0 7 -8 -4
-13 -1 -13 8 0 19 17 30 25 16 3 -5 10 -10 16 -10 5 0 4 9 -3 20 -7 11 -20 20
-28 20 -13 0 -13 1 0 10 11 7 19 5 28 -7 6 -9 12 -12 12 -6 0 5 -9 18 -20 28
-11 10 -17 22 -13 28 3 5 1 7 -5 3 -6 -4 -12 3 -14 16 -3 20 -9 23 -40 21 -21
-1 -40 2 -43 6 -2 5 11 6 30 4 26 -3 35 0 35 12 0 8 5 15 11 15 5 0 7 5 4 10
-3 6 1 10 9 10 9 0 16 5 16 11 0 5 -4 8 -9 5 -5 -3 -12 1 -15 10 -9 24 -7 31
5 14 8 -12 9 -10 4 9 -5 17 -4 22 6 19 8 -3 14 -11 15 -19 0 -8 4 -27 9 -43 7
-27 -8 -52 -26 -40 -9 5 -5 -23 4 -32 4 -4 7 0 7 9 0 10 8 17 17 17 13 0 14
-3 5 -12 -17 -17 -15 -28 6 -27 11 0 12 2 4 6 -9 4 -10 8 -2 18 8 9 7 25 -4
55 -13 37 -12 41 1 36 9 -4 22 -1 29 5 11 9 10 15 -3 36 -16 25 -16 25 14 20
20 -3 30 -1 30 9 0 7 -5 10 -11 6 -6 -3 -20 -6 -31 -7 -15 0 -20 -7 -19 -28 0
-15 -5 -26 -10 -24 -6 2 -10 12 -8 22 2 12 -1 16 -10 12 -15 -5 -41 26 -31 37
11 11 24 6 17 -6 -5 -8 0 -7 11 2 17 14 18 13 11 -5 -5 -14 -4 -17 4 -9 12 12
3 47 -11 39 -5 -3 -11 6 -15 20 -3 14 -10 25 -15 25 -5 0 -6 -7 -3 -15 4 -8 1
-15 -4 -15 -18 0 -24 20 -11 36 6 8 9 17 5 21 -3 3 -6 1 -6 -7 0 -9 -3 -10
-14 -1 -11 9 -12 6 -8 -16 5 -25 3 -27 -11 -14 -9 7 -14 18 -10 25 3 6 0 6 -8
-1 -18 -17 -29 -16 -29 2 0 8 -4 15 -10 15 -5 0 -10 5 -10 11 0 5 4 8 9 5 5
-3 11 1 14 8 5 11 22 14 66 13 33 -1 63 -6 67 -10 14 -13 23 -7 17 11 -6 15
-5 16 12 2 11 -9 16 -10 11 -3 -5 10 6 13 46 12 29 0 64 2 78 4 30 5 60 -12
53 -29 -2 -6 0 -15 6 -19 6 -3 9 0 5 8 -11 28 61 61 78 35 4 -8 8 -8 8 -2 0 6
22 11 53 11 28 0 80 4 114 8 60 7 63 7 72 -16 8 -21 16 -12 12 14 -1 10 87 9
93 -2 3 -4 18 -6 32 -3 21 4 25 2 19 -9 -6 -11 -5 -12 6 -1 16 15 169 16 289
1 47 -5 157 -12 245 -14 151 -3 256 -18 328 -47 29 -11 29 -11 32 -48 1 -14 5
-38 8 -55 28 -167 41 -225 58 -255 89 -157 115 -261 105 -420 -3 -58 -14 -135
-25 -172 -11 -36 -18 -68 -15 -70 2 -2 5 -13 7 -24 3 -19 26 -121 53 -241 8
-34 14 -72 14 -83 0 -40 47 -111 60 -91 3 5 16 12 29 16 21 6 23 5 17 -11 -6
-15 -5 -16 5 -7 10 10 9 17 -8 35 -28 32 -40 53 -23 43 10 -6 11 -4 4 6 -5 8
-10 34 -11 58 -1 24 -5 46 -8 49 -2 3 0 12 7 19 7 9 8 17 2 21 -14 11 -15 32
-1 32 8 0 7 4 -3 10 -9 6 -10 10 -3 10 8 0 9 9 3 30 -5 16 -5 29 -2 29 21 -3
23 4 8 26 -13 20 -16 45 -14 120 2 52 5 95 8 95 3 0 6 14 7 32 1 17 8 35 15
40 7 4 8 8 2 8 -6 0 -9 19 -6 48 4 57 4 74 2 87 -6 27 6 38 78 73 173 85 519
290 570 339 11 10 45 40 76 68 32 27 84 84 116 127 32 42 61 74 65 70 5 -4 5
-1 1 5 -8 14 5 43 30 67 8 9 11 16 6 16 -5 0 -9 12 -10 28 -2 60 -22 154 -46
213 -14 34 -22 67 -19 72 3 6 1 7 -4 4 -6 -4 -14 0 -17 9 -3 8 -2 13 2 10 5
-3 9 1 9 8 0 8 -5 12 -11 10 -6 -2 -36 21 -65 51 -51 52 -61 57 -165 90 -148
45 -422 81 -658 86 l-78 1 -5 32 c-53 304 -81 502 -71 508 8 5 7 8 -2 8 -7 0
-11 4 -7 9 3 5 1 12 -5 16 -5 3 -10 12 -10 18 0 7 4 6 10 -3 8 -13 10 -12 10
4 0 12 5 16 15 12 11 -4 15 2 15 24 0 17 -5 30 -12 30 -10 0 -10 2 -1 8 6 4
13 21 16 37 2 16 9 31 17 33 8 3 10 0 5 -8 -5 -9 -4 -11 3 -6 16 10 15 46 0
47 -7 1 -2 5 12 9 17 5 19 8 8 9 -13 1 -18 10 -19 36 -1 19 -2 41 -3 48 -1 6
2 17 6 24 5 6 5 14 -2 18 -5 3 -10 12 -10 18 0 9 2 9 8 0 4 -6 7 13 8 43 0 49
-2 54 -21 49 -20 -6 -20 -6 0 7 16 10 20 21 17 53 -4 44 -6 110 -4 165 1 19 2
44 1 55 -1 48 9 83 29 103 12 12 22 18 22 13 0 -5 11 -8 25 -7 23 1 24 2 8 14
-16 12 -32 12 -83 0 -18 -4 -50 -30 -50 -41 0 -5 7 -4 15 3 13 11 12 7 -2 -18
-10 -17 -21 -28 -25 -26 -4 3 -4 -5 0 -18 9 -24 7 -132 -2 -158 -4 -12 -13
-80 -15 -113 -1 -4 -12 0 -26 10 -24 18 -33 43 -15 43 5 0 7 6 5 13 -2 6 -6
41 -9 75 -3 38 -11 71 -20 81 -9 10 -16 22 -16 27 0 15 -37 84 -56 105 -9 11
-25 19 -35 19 -10 0 -21 5 -24 10 -3 6 -14 10 -23 10 -16 -1 -15 -2 1 -14 16
-12 16 -14 2 -20 -9 -3 -13 -10 -10 -16 3 -5 2 -10 -2 -10 -5 0 -29 33 -53 73
-113 183 -285 380 -407 465 l-31 22 -1194 -1 -1193 0 -50 -35z m3020 -730 l3
-39 -18 40 c-24 53 -26 75 -4 53 9 -8 17 -33 19 -54z m50 -155 c2 -22 0 -27
-6 -18 -10 16 -12 66 -3 56 4 -4 8 -21 9 -38z m61 16 c-2 -7 1 -18 7 -24 9
-10 7 -16 -7 -27 -11 -8 -27 -14 -35 -13 -9 1 -4 6 12 12 26 10 37 27 18 27
-5 0 -8 11 -8 25 0 13 4 22 9 19 5 -3 7 -12 4 -19z m49 -55 c3 -6 -1 -7 -9 -4
-9 3 -18 0 -21 -8 -3 -8 -15 -15 -27 -15 -19 -2 -18 0 8 17 34 22 41 23 49 10z
m45 -4 c0 -11 -19 -15 -25 -6 -3 5 1 10 9 10 9 0 16 -2 16 -4z m-51 -42 c-7
-8 -17 -13 -23 -11 -19 7 -49 -9 -52 -26 -3 -20 12 -23 19 -4 3 7 6 4 6 -7 1
-12 6 -16 15 -13 10 4 13 1 10 -8 -3 -8 6 -21 21 -31 28 -18 28 -23 9 -99 -3
-11 -6 -26 -6 -32 -1 -7 -5 -13 -10 -13 -12 0 -10 -38 3 -42 6 -2 7 -12 1 -28
-8 -20 -16 2 -46 130 -20 85 -39 162 -42 172 -4 14 3 16 43 15 35 -2 47 2 45
11 -1 8 2 11 8 7 8 -5 7 -11 -1 -21z m7 -54 c0 -12 -4 -16 -9 -11 -5 5 -6 14
-3 20 10 15 12 14 12 -9z m-1466 -1504 c0 -11 -19 -15 -25 -6 -3 5 1 10 9 10
9 0 16 -2 16 -4z m-459 -33 c-11 -5 -11 -7 0 -14 10 -6 11 -9 2 -9 -19 0 -15
-18 5 -22 11 -3 8 -6 -11 -10 -23 -4 -27 -2 -22 10 6 16 -10 32 -32 32 -7 0
-13 -10 -13 -21 0 -17 -3 -19 -13 -10 -8 6 -17 8 -21 4 -4 -4 -4 1 0 11 5 14
9 15 15 4 7 -10 9 -8 9 6 0 15 6 17 30 14 17 -3 33 -1 36 4 3 4 11 8 17 7 8 0
7 -3 -2 -6z m-146 -27 c16 -8 22 -17 16 -21 -6 -3 -9 -10 -7 -14 3 -4 -4 -8
-15 -8 -10 -1 -19 3 -19 8 0 6 4 8 9 4 5 -3 12 -1 15 4 9 14 -15 26 -44 23
-23 -1 -23 -1 -5 7 11 5 21 10 21 10 1 1 14 -5 29 -13z m105 -16 c0 -5 -2 -10
-4 -10 -3 0 -8 5 -11 10 -3 6 -1 10 4 10 6 0 11 -4 11 -10z m110 -13 c0 -11
-1 -18 -3 -16 -1 2 -8 11 -15 20 -9 13 -9 16 3 16 8 0 15 -9 15 -20z m-315 3
c4 -6 12 -7 18 -4 7 4 8 3 4 -1 -10 -12 -39 -16 -32 -5 3 5 -1 11 -7 13 -9 4
-10 6 -1 6 6 1 15 -4 18 -9z m-197 -9 c11 -7 10 -9 -3 -14 -9 -4 -14 -3 -10 2
3 5 -1 12 -7 14 -7 3 -8 6 -3 6 6 0 16 -3 23 -8z m52 5 c0 -2 -6 -9 -13 -15
-10 -8 -14 -7 -14 4 0 8 6 15 14 15 7 0 13 -2 13 -4z m-152 -41 c-3 -3 -9 2
-12 12 -6 14 -5 15 5 6 7 -7 10 -15 7 -18z m-38 8 c0 -1 -10 -7 -21 -14 -13
-6 -19 -7 -15 -1 3 6 0 12 -6 15 -7 2 -1 4 14 3 16 0 28 -2 28 -3z m730 -2 c0
-6 -4 -12 -8 -15 -5 -3 -9 1 -9 9 0 8 4 15 9 15 4 0 8 -4 8 -9z m10 -66 c-7
-9 -15 -13 -19 -10 -3 3 1 10 9 15 21 14 24 12 10 -5z m0 -44 c-12 -23 -30
-20 -30 6 0 9 6 13 15 9 8 -3 15 0 15 6 0 6 3 9 6 6 3 -4 1 -16 -6 -27z m95
20 c3 -5 2 -12 -3 -15 -5 -3 -9 1 -9 9 0 17 3 19 12 6z m-95 -61 c0 -5 -5 -10
-11 -10 -5 0 -7 5 -4 10 3 6 8 10 11 10 2 0 4 -4 4 -10z m3 -160 c7 0 12 -13
12 -30 0 -16 -3 -30 -7 -30 -5 0 -8 11 -8 25 0 14 -4 25 -10 25 -5 0 -10 8 -9
18 0 10 3 12 6 5 2 -7 10 -13 16 -13z m82 -60 c3 -5 1 -10 -5 -10 -6 0 -8 -5
-4 -12 5 -9 3 -9 -9 1 -9 7 -14 17 -11 22 7 12 21 11 29 -1z m-1433 -103 c3 4
3 2 1 -6 -2 -8 2 -11 11 -8 10 4 12 0 9 -13 -5 -18 -6 -18 -23 3 -20 24 -18
25 -35 -29 -3 -8 -10 -12 -16 -8 -7 4 -7 9 -2 13 12 8 27 43 24 55 -1 5 4 4
12 -3 8 -6 17 -8 19 -4z m-108 -36 c3 -5 -1 -11 -9 -15 -8 -3 -17 0 -21 6 -4
7 -3 8 4 4 7 -4 12 -2 12 3 0 13 7 14 14 2z m106 -10 c0 -6 -4 -12 -8 -15 -5
-3 -9 1 -9 9 0 8 4 15 9 15 4 0 8 -4 8 -9z m52 2 c-6 -2 -9 -10 -6 -15 4 -7 2
-8 -4 -4 -18 11 -14 26 6 25 10 0 12 -3 4 -6z m-19 -57 c2 -19 8 -26 22 -26
18 0 18 -1 -4 -16 -19 -14 -25 -14 -32 -3 -12 19 -11 29 1 29 6 0 10 5 10 11
0 6 -7 9 -15 5 -10 -3 -15 1 -15 13 0 43 31 32 33 -13z m-153 30 c0 -2 -8 -10
-17 -17 -16 -13 -17 -12 -4 4 13 16 21 21 21 13z m210 -10 c0 -3 -4 -8 -10
-11 -5 -3 -10 -1 -10 4 0 6 5 11 10 11 6 0 10 -2 10 -4z m-235 -46 c3 -5 1
-10 -4 -10 -6 0 -11 5 -11 10 0 6 2 10 4 10 3 0 8 -4 11 -10z m185 -57 c0 -2
-4 -1 -10 2 -12 8 -13 3 -1 -29 8 -18 15 -23 30 -19 13 3 21 1 21 -7 0 -7 -7
-10 -16 -6 -11 4 -15 2 -11 -8 3 -8 0 -20 -8 -26 -7 -6 -10 -20 -7 -33 6 -22
6 -22 13 3 l7 25 1 -27 c1 -22 -4 -28 -20 -28 -34 0 -58 18 -52 40 3 11 9 17
14 14 5 -3 17 0 26 6 17 11 17 11 1 6 -10 -3 -18 -1 -18 4 0 5 -7 7 -15 4 -11
-5 -13 -2 -9 10 4 11 1 16 -11 16 -11 0 -15 -5 -12 -14 4 -11 1 -13 -11 -9
-38 15 -42 29 -14 52 15 12 28 17 30 11 2 -5 11 -10 20 -10 15 0 15 -2 2 -10
-12 -8 -12 -10 -1 -10 8 0 20 -8 27 -17 7 -10 16 -14 21 -9 4 5 2 11 -4 13 -7
3 -13 13 -13 24 0 11 -10 23 -22 28 -13 5 -17 10 -10 15 6 4 8 14 5 23 -4 11
2 8 20 -8 15 -12 27 -24 27 -26z m30 -2 c0 -5 -8 -15 -17 -22 -16 -12 -17 -12
-6 2 7 9 10 19 6 22 -3 4 -1 7 5 7 7 0 12 -4 12 -9z m-225 -11 c-3 -5 -12 -10
-18 -10 -7 0 -6 4 3 10 19 12 23 12 15 0z m-58 -27 c-4 -3 1 -12 11 -20 15
-13 15 -13 -6 -3 -19 9 -23 30 -5 30 4 0 3 -3 0 -7z m-322 -963 c3 -5 1 -10
-4 -10 -6 0 -11 5 -11 10 0 6 2 10 4 10 3 0 8 -4 11 -10z m19 -36 c3 -8 2 -12
-4 -9 -6 3 -10 10 -10 16 0 14 7 11 14 -7z m-288 -177 c-2 -10 2 -21 9 -23 8
-3 11 -12 8 -20 -3 -8 -1 -14 5 -14 5 0 9 -14 8 -30 -1 -20 1 -27 8 -20 16 16
29 11 23 -10 -3 -10 1 -24 9 -31 8 -6 11 -15 8 -20 -3 -5 0 -9 5 -9 6 0 11 5
11 11 0 6 6 9 14 6 8 -3 13 1 12 10 0 9 5 18 13 21 8 3 11 0 7 -7 -4 -6 -2
-11 4 -11 8 0 10 10 6 28 -4 15 -3 23 1 17 4 -5 16 -11 25 -11 14 -1 16 2 7
18 -6 11 -8 22 -5 25 3 3 8 -2 12 -11 7 -19 24 -21 24 -3 0 8 6 14 14 14 9 0
12 -6 8 -16 -5 -13 -3 -14 10 -3 9 7 15 20 13 30 -1 9 0 11 2 4 3 -7 9 -10 14
-7 19 13 8 -7 -18 -30 -20 -17 -23 -24 -13 -25 9 0 22 6 29 13 11 10 13 9 7
-3 -5 -10 -3 -10 6 2 13 15 15 15 26 0 11 -15 12 -14 8 6 -2 12 0 20 5 16 5
-3 9 -12 9 -20 0 -9 5 -12 12 -8 6 4 8 3 4 -4 -11 -18 14 -61 33 -55 14 4 14
3 1 -6 -11 -8 -18 -7 -27 6 -7 9 -14 15 -15 12 -30 -48 -30 -72 -2 -83 18 -7
19 -26 1 -26 -7 0 -13 -9 -14 -20 -2 -22 12 -27 20 -7 3 7 6 5 6 -5 1 -10 -6
-18 -15 -18 -8 0 -13 -4 -10 -9 3 -5 -4 -15 -17 -23 -26 -18 -86 -28 -93 -17
-2 5 -11 6 -19 2 -17 -6 -76 15 -72 26 1 3 -1 6 -5 6 -12 0 -59 74 -61 95 -1
10 -6 18 -11 17 -12 -2 -52 72 -51 93 1 8 -3 20 -7 26 -5 7 -8 27 -8 45 1 19
0 51 -2 72 -3 33 -2 36 10 20 7 -10 11 -26 8 -36z m439 -6 c3 -5 2 -12 -3 -15
-5 -3 -9 1 -9 9 0 17 3 19 12 6z m-254 -38 c13 -16 12 -17 -3 -4 -17 13 -22
21 -14 21 2 0 10 -8 17 -17z m-56 -53 c-8 -9 -13 -19 -10 -22 9 -9 -23 -30
-35 -23 -16 10 -11 28 6 21 15 -6 15 -4 3 11 -7 10 -10 15 -5 11 5 -4 17 -3
28 3 16 9 17 13 6 27 -12 15 -11 16 5 3 16 -12 16 -16 2 -31z m235 20 c0 -5
-5 -10 -11 -10 -5 0 -7 5 -4 10 3 6 8 10 11 10 2 0 4 -4 4 -10z m0 -129 c0
-11 -26 -22 -34 -14 -12 12 -5 23 14 23 11 0 20 -4 20 -9z m45 -50 c-9 -8 -36
-10 -30 -2 2 4 11 8 20 8 8 0 13 -3 10 -6z m65 -7 c0 -8 -19 -13 -24 -6 -3 5
1 9 9 9 8 0 15 -2 15 -3z m333 -131 c-10 -3 -10 -8 1 -19 16 -15 30 -19 22 -6
-3 5 1 9 9 9 18 0 19 -4 3 -22 -11 -11 -17 -10 -37 8 -23 21 -24 21 -17 2 6
-16 5 -17 -5 -8 -10 10 -9 15 1 28 7 8 18 15 24 14 7 0 6 -2 -1 -6z m-192 -36
c-5 -5 -7 -16 -4 -23 3 -8 0 -14 -6 -14 -6 0 -10 16 -9 35 1 28 4 33 15 23 9
-7 10 -15 4 -21z m67 21 c8 -8 8 -15 1 -24 -7 -8 -6 -14 2 -20 8 -5 10 -3 4 7
-4 8 3 3 16 -11 17 -18 20 -27 11 -30 -9 -4 -7 -10 7 -22 11 -9 23 -13 27 -10
5 4 3 0 -3 -8 -6 -8 -13 -32 -17 -52 -4 -21 -11 -38 -16 -38 -17 0 -11 -18 8
-23 13 -4 11 -5 -5 -6 -13 0 -22 -6 -20 -12 1 -6 -4 -13 -11 -14 -7 -2 -8 -1
-3 1 6 3 7 12 4 20 -3 7 -9 12 -13 9 -5 -3 -12 0 -16 6 -5 9 0 10 14 7 23 -6
31 7 10 14 -6 2 -8 10 -4 17 5 8 12 9 20 2 9 -8 13 -7 13 4 0 8 -4 12 -8 9 -5
-3 -17 4 -27 14 -14 14 -21 16 -30 6 -9 -10 -8 -16 4 -28 8 -9 11 -16 6 -16
-12 0 -21 -68 -10 -74 5 -3 3 -3 -4 -2 -7 2 -13 14 -13 27 -1 13 -6 23 -13 22
-7 -2 -9 4 -5 14 5 12 3 14 -8 8 -12 -8 -12 -6 0 8 14 17 26 24 17 9 -2 -4 -1
-14 5 -22 6 -12 9 -9 9 11 0 14 -6 31 -12 38 -10 11 -10 13 0 7 7 -4 12 -1 12
8 0 10 -6 13 -17 9 -13 -5 -15 -2 -11 15 4 12 2 25 -3 28 -5 3 -9 11 -9 17 0
7 6 4 14 -5 7 -10 16 -15 19 -11 4 3 7 1 7 -5 0 -7 -4 -12 -10 -12 -5 0 -10
-4 -10 -9 0 -15 35 -7 41 9 9 22 0 40 -17 33 -8 -3 -14 0 -14 6 0 6 5 11 10
11 6 0 10 8 10 18 0 13 -2 14 -9 3 -5 -8 -11 -9 -15 -3 -4 6 2 15 11 21 10 6
14 11 8 11 -5 0 -3 5 5 10 19 13 24 12 38 -2z m-100 -35 c-1 -21 -3 -32 -6
-25 -2 6 -11 12 -20 12 -15 1 -15 2 1 14 18 14 24 32 7 21 -5 -3 -10 -1 -10 4
0 6 7 11 15 11 10 0 14 -11 13 -37z m252 -27 c0 -2 -7 -7 -16 -10 -8 -3 -12
-2 -9 4 6 10 25 14 25 6z m-776 -41 c3 -8 1 -15 -4 -15 -6 0 -10 7 -10 15 0 8
2 15 4 15 2 0 6 -7 10 -15z m526 -5 c0 -5 -2 -10 -4 -10 -3 0 -8 5 -11 10 -3
6 -1 10 4 10 6 0 11 -4 11 -10z m354 -26 c9 -3 16 -13 16 -22 0 -13 -2 -13
-18 1 -10 10 -22 14 -27 10 -4 -5 -5 -2 -1 5 8 14 9 14 30 6z m-114 -38 c0 -2
-7 -7 -16 -10 -8 -3 -12 -2 -9 4 6 10 25 14 25 6z m106 -42 c-6 -12 -14 -20
-19 -17 -4 3 -3 10 2 17 6 7 9 15 6 18 -3 2 1 5 8 5 11 0 11 -5 3 -23z m43 -7
c8 -10 7 -14 -2 -14 -8 0 -14 6 -14 14 0 7 1 13 2 13 2 0 8 -6 14 -13z m-191
-31 c-1 -14 -5 -23 -9 -20 -7 4 0 44 7 44 2 0 3 -11 2 -24z m217 -26 c3 -5 2
-10 -4 -10 -5 0 -13 5 -16 10 -3 6 -2 10 4 10 5 0 13 -4 16 -10z m-215 -20 c0
-5 -7 -7 -15 -4 -8 4 -15 8 -15 10 0 2 7 4 15 4 8 0 15 -4 15 -10z m-66 -15
c3 -8 0 -15 -7 -15 -8 0 -6 -4 3 -10 13 -8 13 -10 -2 -10 -12 0 -16 -5 -12
-17 5 -15 4 -15 -4 -3 -6 8 -8 18 -6 22 3 5 -5 12 -17 16 -19 7 -20 10 -6 15
10 4 17 2 17 -4 0 -6 5 -7 10 -4 6 4 8 11 5 16 -4 5 -2 9 3 9 6 0 12 -7 16
-15z m49 -58 c3 -8 -3 -14 -15 -14 -16 -2 -17 1 -8 13 15 17 17 17 23 1z m227
-37 c-8 -5 -19 -10 -25 -10 -5 0 -3 5 5 10 8 5 20 10 25 10 6 0 3 -5 -5 -10z
m17 -40 c-2 -23 -10 -17 -14 11 -2 11 1 18 6 14 6 -3 9 -14 8 -25z m-34 -10
c3 -11 1 -18 -4 -14 -5 3 -9 12 -9 20 0 20 7 17 13 -6z m-43 -20 c0 -5 -4 -10
-10 -10 -5 0 -10 5 -10 10 0 6 5 10 10 10 6 0 10 -4 10 -10z m-95 -30 c3 -6
-1 -7 -9 -4 -18 7 -21 14 -7 14 6 0 13 -4 16 -10z m41 -16 c1 -9 0 -13 -4 -10
-3 4 -7 14 -8 22 -1 9 0 13 4 10 3 -4 7 -14 8 -22z m42 17 c-2 -19 4 -24 12
-11 8 13 10 12 10 -2 0 -23 -13 -23 -33 0 -14 15 -14 19 -3 19 8 0 15 -3 14
-6z m122 -81 c0 -5 -4 -10 -10 -10 -5 0 -10 5 -10 10 0 6 5 10 10 10 6 0 10
-4 10 -10z m-129 -63 c-10 -9 -11 -8 -5 6 3 10 9 15 12 12 3 -3 0 -11 -7 -18z
m78 16 c-4 -26 2 -35 14 -24 15 12 27 5 27 -15 0 -13 -17 -13 -39 0 -11 7 -13
5 -8 -7 3 -9 1 -19 -6 -23 -7 -4 -9 -4 -5 1 4 4 3 17 -3 28 -9 15 -8 18 2 12
9 -6 11 -4 6 7 -3 9 -3 19 0 22 8 8 13 8 12 -1z m33 -127 c7 4 8 2 4 -5 -9
-13 -26 -5 -25 12 0 9 2 8 6 -1 2 -6 10 -9 15 -6z m98 -76 c0 -5 -5 -10 -11
-10 -5 0 -7 5 -4 10 3 6 8 10 11 10 2 0 4 -4 4 -10z m10 -94 c0 -3 -4 -8 -10
-11 -5 -3 -10 -1 -10 4 0 6 5 11 10 11 6 0 10 -2 10 -4z m1670 -12 c0 -8 -19
-13 -24 -6 -3 5 1 9 9 9 8 0 15 -2 15 -3z m-1355 -85 c-7 -18 -48 -23 -42 -6
2 7 11 11 20 11 10 -1 13 4 10 15 -4 12 -3 13 6 5 6 -6 9 -17 6 -25z m-138 2
c0 -11 -5 -17 -9 -15 -5 3 -5 10 -2 16 5 7 1 9 -9 5 -10 -3 -17 -2 -17 3 0 6
9 10 19 10 13 0 19 -6 18 -19z m246 -11 c13 -15 14 -20 3 -20 -7 0 -16 9 -19
20 -3 11 -4 20 -3 20 1 0 9 -9 19 -20z m-163 -4 c0 -8 -6 -17 -12 -20 -7 -3
-3 -3 9 0 18 4 22 2 17 -10 -5 -14 -9 -14 -37 1 -25 13 -28 18 -14 21 9 2 17
8 17 13 0 5 5 9 10 9 6 0 10 -6 10 -14z m141 -44 c-8 -3 -9 -8 -2 -16 7 -8 4
-12 -12 -13 -12 0 -16 1 -8 4 11 5 11 7 0 14 -10 6 -10 9 -2 9 8 0 11 11 7 33
l-5 32 17 -30 c12 -21 13 -30 5 -33z m70 31 c-8 -15 -10 -15 -11 -2 0 17 10
32 18 25 2 -3 -1 -13 -7 -23z m69 -13 c0 -5 -2 -10 -4 -10 -3 0 -8 5 -11 10
-3 6 -1 10 4 10 6 0 11 -4 11 -10z m1375 -8 c-3 -3 -11 0 -18 7 -9 10 -8 11 6
5 10 -3 15 -9 12 -12z m-1408 -6 c-5 -16 -27 -19 -27 -3 0 7 7 14 15 14 9 0
14 -5 12 -11z m1370 -8 c-3 -8 -6 -5 -6 6 -1 11 2 17 5 13 3 -3 4 -12 1 -19z
m-1425 -10 c-7 -7 -12 -8 -12 -2 0 14 12 26 19 19 2 -3 -1 -11 -7 -17z m1503
-8 c-3 -5 -13 -10 -21 -10 -9 0 -12 -5 -8 -12 4 -7 3 -8 -4 -4 -19 11 -14 24
11 29 12 2 23 5 25 6 2 0 0 -3 -3 -9z m-1648 -6 c-3 -3 -12 -4 -19 -1 -8 3 -5
6 6 6 11 1 17 -2 13 -5z m224 -17 c-10 -9 -11 -8 -5 6 3 10 9 15 12 12 3 -3 0
-11 -7 -18z m-835 -117 c-14 -118 -32 -129 -41 -25 -8 84 -2 123 23 141 26 19
30 -7 18 -116z m766 115 c2 3 5 -2 5 -10 0 -19 0 -19 -23 7 -12 14 -13 18 -3
10 9 -6 18 -10 21 -7z m-102 -17 c-12 -5 -25 -6 -28 -3 -3 3 0 5 7 5 7 0 10 4
7 9 -4 5 4 7 16 3 l22 -5 -24 -9z m925 12 c3 -5 1 -10 -4 -10 -6 0 -11 5 -11
10 0 6 2 10 4 10 3 0 8 -4 11 -10z m-402 -44 c4 -10 1 -13 -8 -9 -8 3 -12 9
-9 14 7 12 11 11 17 -5z m1237 10 c0 -2 -7 -7 -16 -10 -8 -3 -12 -2 -9 4 6 10
25 14 25 6z m-1330 -36 c0 -13 -11 -13 -30 0 -12 8 -11 10 8 10 12 0 22 -4 22
-10z m100 -6 c0 -2 -9 -4 -21 -4 -11 0 -18 4 -14 10 5 8 35 3 35 -6z m40 12
c0 -2 -7 -6 -15 -10 -8 -3 -15 -1 -15 4 0 6 7 10 15 10 8 0 15 -2 15 -4z
m-112 -31 c-3 -3 -9 2 -12 12 -6 14 -5 15 5 6 7 -7 10 -15 7 -18z m127 6 c-3
-6 -11 -8 -17 -5 -6 4 -5 9 3 15 16 10 23 4 14 -10z m1285 5 c0 -9 -9 -14 -21
-13 -19 1 -19 2 -3 14 22 16 24 16 24 -1z m-1958 -190 c7 4 8 2 4 -4 -4 -7 -2
-12 5 -12 7 0 9 -3 6 -6 -8 -9 -37 15 -36 30 0 7 2 6 6 -2 2 -6 10 -9 15 -6z
m128 -10 c0 -3 -4 -8 -10 -11 -5 -3 -10 -1 -10 4 0 6 5 11 10 11 6 0 10 -2 10
-4z m-256 -18 c-3 -4 -11 -5 -19 -1 -21 7 -19 12 4 10 11 0 18 -5 15 -9z m87
1 c-14 -5 -28 -6 -32 -2 -4 4 6 9 24 10 30 1 31 1 8 -8z m217 -24 c-3 -3 -9 2
-12 12 -6 14 -5 15 5 6 7 -7 10 -15 7 -18z m45 8 c-7 -2 -19 -2 -25 0 -7 3 -2
5 12 5 14 0 19 -2 13 -5z m-123 -20 c0 -10 -4 -14 -8 -8 -4 6 -11 13 -16 18
-5 4 -2 7 7 7 10 0 17 -8 17 -17z m30 -4 c0 -6 -4 -7 -10 -4 -5 3 -10 11 -10
16 0 6 5 7 10 4 6 -3 10 -11 10 -16z m27 -1 c-3 -8 -6 -5 -6 6 -1 11 2 17 5
13 3 -3 4 -12 1 -19z m207 14 c3 -5 -1 -9 -9 -9 -8 0 -12 4 -9 9 3 4 7 8 9 8
2 0 6 -4 9 -8z m-326 -14 c9 -9 12 -9 13 3 0 7 4 4 10 -9 5 -13 13 -20 19 -17
15 9 12 -4 -5 -21 -8 -9 -15 -12 -15 -7 0 4 -11 21 -25 36 -25 26 -22 40 3 15z
m196 -14 c3 -8 2 -12 -4 -9 -6 3 -10 10 -10 16 0 14 7 11 14 -7z m115 -3 c11
-11 22 -17 25 -15 4 2 2 -2 -4 -8 -15 -17 -12 -31 4 -25 8 3 20 0 26 -8 10
-12 3 -13 -40 -9 -35 3 -50 2 -45 -5 3 -6 1 -11 -4 -11 -15 0 -14 27 2 33 6 3
8 6 2 6 -5 0 -17 -4 -25 -9 -13 -8 -13 -13 -2 -32 l13 -23 -19 22 c-11 12 -22
19 -26 16 -3 -4 -6 -1 -6 5 0 7 6 12 14 12 8 0 16 7 20 15 3 8 12 12 21 9 21
-9 19 22 -2 35 -16 9 -16 10 5 11 12 0 31 -9 41 -19z m-364 -6 c6 0 13 4 17
10 5 6 8 3 8 -6 0 -10 7 -16 18 -15 11 0 16 -5 14 -16 -1 -9 6 -19 18 -23 20
-6 28 -25 10 -25 -5 0 -10 -7 -10 -16 0 -8 5 -12 10 -9 6 3 10 1 10 -4 0 -6
-7 -11 -16 -11 -12 0 -15 7 -12 23 2 13 -2 29 -9 36 -8 7 -12 19 -9 27 9 25
-9 15 -21 -11 -10 -22 -1 -47 10 -28 2 5 2 3 1 -4 -2 -6 2 -14 9 -17 9 -3 9
-7 1 -13 -6 -4 -14 -15 -17 -23 -4 -12 -6 -12 -6 2 -1 12 -7 16 -18 12 -15 -5
-16 -4 -3 5 12 9 13 11 1 11 -8 0 -11 3 -8 6 4 4 13 1 22 -6 8 -7 15 -8 15 -2
0 5 -7 15 -15 22 -12 10 -18 10 -29 1 -25 -21 -15 -57 16 -52 9 1 4 -27 -7
-36 -4 -4 -5 -2 -1 5 6 10 0 12 -31 7 -27 -5 -34 -4 -23 4 8 5 19 7 25 3 5 -3
4 2 -4 11 -10 13 -10 17 -1 17 9 0 8 7 -4 25 -9 14 -13 25 -9 25 5 0 1 5 -7
11 -12 8 -11 9 5 5 29 -8 50 8 38 29 -9 15 -11 16 -16 1 -7 -18 -27 -22 -27
-5 0 5 5 7 10 4 6 -3 10 3 10 15 0 15 4 19 13 13 6 -4 17 -8 22 -8z m189 0
c-4 -9 0 -15 9 -15 12 0 13 -7 7 -36 -5 -21 -15 -41 -22 -45 -7 -5 -8 -9 -3
-9 6 0 16 5 23 12 9 9 14 6 21 -13 5 -14 5 -29 0 -35 -5 -6 -6 -14 -2 -18 4
-4 -5 -2 -21 4 -25 9 -28 8 -22 -7 6 -14 4 -15 -5 -6 -15 15 -3 34 18 26 10
-4 14 -2 9 5 -3 6 -2 13 4 17 5 3 10 11 10 18 0 6 -6 3 -13 -8 -8 -10 -19 -15
-26 -11 -8 5 -14 0 -18 -13 -6 -22 -12 -25 -37 -15 -20 8 -21 60 -1 68 8 3 14
0 12 -7 -1 -7 4 -11 11 -9 8 1 11 -3 7 -10 -4 -7 0 -4 9 6 8 10 13 22 11 26
-8 13 -55 18 -55 6 0 -6 -5 -4 -10 4 -14 22 -12 30 5 24 9 -4 15 0 15 10 0 9
7 16 16 16 14 0 14 -2 -1 -16 -9 -9 -13 -19 -10 -22 3 -4 10 -1 14 7 7 10 10
9 14 -3 4 -9 13 -16 21 -16 15 0 12 34 -6 57 -8 10 -4 14 19 22 1 1 0 -6 -3
-14z m36 5 c0 -5 -4 -10 -10 -10 -5 0 -10 5 -10 10 0 6 5 10 10 10 6 0 10 -4
10 -10z m345 -10 c-3 -5 -10 -10 -16 -10 -5 0 -9 5 -9 10 0 6 7 10 16 10 8 0
12 -4 9 -10z m-720 -12 c5 4 5 1 1 -6 -6 -10 -11 -10 -22 -1 -8 6 -14 14 -14
16 0 3 6 0 13 -6 8 -6 18 -7 22 -3z m402 -4 c-3 -3 -12 -4 -19 -1 -8 3 -5 6 6
6 11 1 17 -2 13 -5z m-372 -14 c-3 -5 0 -10 8 -10 8 0 20 -7 27 -15 10 -12 9
-15 -4 -15 -10 0 -14 5 -11 10 8 13 -8 13 -21 0 -7 -7 -10 -4 -8 12 3 28 3 28
10 28 3 0 2 -4 -1 -10z m-35 -37 c-1 -24 -2 -26 -11 -10 -6 9 -15 14 -21 11
-7 -4 -8 -2 -4 5 4 6 12 9 17 6 5 -4 9 -1 9 4 0 6 2 11 5 11 3 0 5 -12 5 -27z
m86 -22 c8 7 14 7 14 1 0 -5 -7 -13 -16 -16 -23 -9 -24 -8 -23 12 0 11 2 12 6
4 4 -10 8 -10 19 -1z m-69 -37 c-3 -3 -12 -4 -19 -1 -8 3 -5 6 6 6 11 1 17 -2
13 -5z m-29 -29 c-3 -3 -9 2 -12 12 -6 14 -5 15 5 6 7 -7 10 -15 7 -18z m135
-18 c3 -8 1 -20 -4 -28 -6 -10 -9 -7 -9 14 0 29 5 35 13 14z m-129 -18 c18 3
23 0 23 -15 0 -15 -1 -15 -12 0 -7 8 -15 13 -18 10 -3 -4 -14 -3 -24 0 -15 6
-15 9 -3 16 9 6 17 5 21 -1 3 -6 9 -10 13 -10z m94 -24 c-2 -12 -7 -7 -15 16
-12 30 -11 32 3 17 9 -8 14 -23 12 -33z m-28 21 c0 -2 -7 -6 -15 -10 -8 -3
-15 -1 -15 4 0 6 7 10 15 10 8 0 15 -2 15 -4z m-1593 -35 c1 -11 -6 -26 -14
-33 -14 -11 -16 -10 -11 10 4 13 2 22 -5 22 -7 0 -5 5 3 10 21 14 26 12 27 -9z
m1497 -7 c3 -8 2 -12 -4 -9 -6 3 -10 10 -10 16 0 14 7 11 14 -7z m106 12 c0
-2 -7 -6 -15 -10 -8 -3 -15 -1 -15 4 0 6 7 10 15 10 8 0 15 -2 15 -4z m10 -30
c0 -3 -4 -8 -10 -11 -5 -3 -10 -1 -10 4 0 6 5 11 10 11 6 0 10 -2 10 -4z m-70
-44 c0 -1 -9 2 -20 8 -11 6 -20 15 -20 20 0 6 9 2 20 -7 11 -10 20 -19 20 -21z
m23 21 c-3 -7 -6 -13 -8 -13 -2 0 -5 6 -8 13 -3 8 1 14 8 14 7 0 11 -6 8 -14z
m-1393 -13 c0 -5 -2 -10 -4 -10 -3 0 -8 5 -11 10 -3 6 -1 10 4 10 6 0 11 -4
11 -10z m-95 -70 c5 -40 4 -43 -9 -25 -9 12 -12 31 -9 49 5 22 3 27 -7 21 -9
-6 -11 -4 -5 4 12 20 24 0 30 -49z m18 35 c-3 -9 -8 -14 -10 -11 -3 3 -2 9 2
15 9 16 15 13 8 -4z m1462 5 c3 -5 2 -10 -4 -10 -5 0 -13 5 -16 10 -3 6 -2 10
4 10 5 0 13 -4 16 -10z m-1505 -70 c0 -5 -5 -10 -11 -10 -5 0 -7 5 -4 10 3 6
8 10 11 10 2 0 4 -4 4 -10z m64 -15 c-4 -8 -7 -15 -9 -15 -2 0 -5 7 -9 15 -3
9 0 15 9 15 9 0 12 -6 9 -15z m1503 -9 c-7 -13 -15 -22 -19 -20 -5 3 -8 0 -8
-6 0 -6 -4 -9 -9 -6 -5 4 0 17 12 31 28 31 38 32 24 1z m-1530 -2 c-3 -3 -12
-4 -19 -1 -8 3 -5 6 6 6 11 1 17 -2 13 -5z m93 -15 c0 -5 -4 -9 -8 -9 -5 0 -9
7 -9 15 0 8 4 12 9 9 4 -3 8 -9 8 -15z m-96 -16 c-6 17 -5 18 14 6 25 -16 24
-16 -9 -22 -19 -4 -25 -1 -26 15 -2 20 -1 20 13 2 13 -18 14 -18 8 -1z m84 -8
c9 1 11 0 4 -2 -7 -3 -10 -8 -7 -13 3 -5 0 -12 -7 -16 -7 -4 -10 -4 -6 1 4 4
0 14 -8 22 -8 8 -11 20 -7 26 5 8 9 7 11 -4 2 -9 11 -16 20 -14z m-28 -39 c25
-14 37 -26 28 -28 -23 -9 2 -22 40 -21 30 0 31 0 8 -4 -22 -4 -26 -7 -15 -14
11 -7 11 -9 -3 -9 -10 0 -18 4 -18 8 0 5 -11 14 -25 20 -16 7 -23 17 -19 27 3
8 1 15 -4 15 -6 0 -13 -8 -15 -17 -4 -14 -5 -12 -6 5 -1 25 -11 28 -29 10 -7
-7 -12 -8 -12 -2 0 8 20 34 26 34 1 0 21 -11 44 -24z m55 4 c3 -5 -1 -10 -10
-10 -9 0 -13 5 -10 10 3 6 8 10 10 10 2 0 7 -4 10 -10z m48 -20 c-3 -12 -8
-19 -11 -16 -5 6 5 36 12 36 2 0 2 -9 -1 -20z m1278 -14 c-6 -15 -18 -26 -28
-25 -17 1 -17 2 0 6 9 2 17 12 17 22 0 10 3 21 7 24 12 13 14 0 4 -27z m-1301
4 c0 -5 -5 -10 -11 -10 -5 0 -7 5 -4 10 3 6 8 10 11 10 2 0 4 -4 4 -10z m1350
6 c0 -3 -4 -8 -10 -11 -5 -3 -10 -1 -10 4 0 6 5 11 10 11 6 0 10 -2 10 -4z
m-1312 -42 c-2 -10 -11 -18 -20 -20 -22 -3 -24 12 -3 20 8 3 15 13 16 23 0 10
3 13 6 6 2 -7 3 -20 1 -29z m79 19 c-13 -3 -17 -11 -14 -24 3 -10 0 -22 -5
-26 -7 -3 -8 -1 -4 5 4 7 3 12 -1 12 -5 0 -9 8 -9 18 0 12 8 18 26 19 16 0 18
-1 7 -4z m-51 -18 c-3 -20 -16 -31 -16 -13 0 13 8 28 16 28 1 0 1 -7 0 -15z
m144 -5 c0 -5 -2 -10 -4 -10 -3 0 -8 5 -11 10 -3 6 -1 10 4 10 6 0 11 -4 11
-10z m-72 -26 c0 -18 -3 -22 -9 -13 -11 18 -11 39 0 39 5 0 9 -12 9 -26z m42
1 c0 -6 -6 -12 -13 -12 -8 0 -14 6 -14 12 0 6 6 12 14 12 7 0 13 -6 13 -12z
m83 0 c-3 -9 -8 -14 -10 -11 -3 3 -2 9 2 15 9 16 15 13 8 -4z m47 -30 c7 -9
10 -18 6 -22 -3 -3 -6 -2 -6 4 0 6 -10 9 -22 8 -16 -2 -17 -1 -4 2 16 4 17 7
5 14 -8 5 -9 9 -3 9 6 0 17 -7 24 -15z m-44 -52 c-10 -10 -19 5 -10 18 6 11 8
11 12 0 2 -7 1 -15 -2 -18z m44 6 c0 -6 -4 -7 -10 -4 -5 3 -10 1 -10 -6 0 -7
-2 -10 -5 -7 -9 8 6 38 16 32 5 -3 9 -10 9 -15z m50 6 c7 -9 8 -15 2 -15 -5 0
-12 7 -16 15 -3 8 -4 15 -2 15 2 0 9 -7 16 -15z m975 -15 c-3 -5 -12 -10 -18
-10 -7 0 -6 4 3 10 19 12 23 12 15 0z m-998 -32 c-3 -8 -6 -5 -6 6 -1 11 2 17
5 13 3 -3 4 -12 1 -19z m60 -4 c-3 -3 -12 -4 -19 -1 -8 3 -5 6 6 6 11 1 17 -2
13 -5z"/>
<path d="M1607 2514 c5 -12 3 -15 -6 -9 -10 6 -11 2 -6 -16 4 -17 3 -20 -3
-10 -6 8 -15 10 -23 5 -11 -6 -12 -5 -2 7 10 13 10 16 0 16 -15 0 -20 -34 -6
-42 5 -4 9 -1 9 4 0 8 7 7 19 -1 16 -10 23 -9 40 6 11 10 17 25 14 33 -5 12
-7 12 -14 2 -4 -7 -6 -16 -3 -20 2 -4 0 -10 -5 -14 -6 -3 -8 5 -5 19 2 14 0
27 -6 31 -6 4 -7 -1 -3 -11z"/>
<path d="M1473 2482 c0 -14 5 -31 12 -39 12 -11 14 -10 12 6 0 11 -5 17 -10
14 -5 -3 -6 4 -3 15 4 11 3 23 -1 25 -4 3 -9 -6 -10 -21z"/>
<path d="M1354 2459 c-7 -11 12 -29 31 -29 6 1 2 5 -8 11 -9 6 -15 14 -12 20
4 5 4 9 1 9 -3 0 -8 -5 -12 -11z"/>
<path d="M1526 2455 c4 -8 8 -15 10 -15 2 0 4 7 4 15 0 8 -4 15 -10 15 -5 0
-7 -7 -4 -15z"/>
<path d="M1583 2430 c4 -17 2 -20 -16 -15 -21 6 -21 5 1 -8 12 -7 20 -15 18
-18 -3 -3 3 -5 14 -5 16 0 17 2 4 20 -17 25 -18 40 -2 30 7 -4 8 -3 4 4 -12
20 -29 13 -23 -8z"/>
<path d="M1433 2405 c0 -8 4 -12 9 -9 5 3 6 10 3 15 -9 13 -12 11 -12 -6z"/>
<path d="M1575 2360 c-3 -5 -1 -10 4 -10 6 0 11 -8 12 -17 0 -15 2 -15 8 2 12
30 -8 51 -24 25z"/>
<path d="M1513 2345 c0 -8 4 -12 9 -9 5 3 6 10 3 15 -9 13 -12 11 -12 -6z"/>
<path d="M1550 2334 c0 -8 -5 -12 -11 -8 -8 5 -8 1 0 -13 6 -11 7 -24 3 -28
-4 -5 -2 -5 4 -2 10 6 18 67 8 67 -2 0 -4 -7 -4 -16z"/>
<path d="M1985 2160 c3 -5 1 -10 -6 -10 -6 0 0 -9 14 -20 17 -14 23 -26 20
-40 -3 -11 0 -20 6 -20 15 0 7 41 -14 74 -16 24 -34 39 -20 16z"/>
<path d="M1978 2123 c-2 -4 -3 -14 -2 -20 1 -7 2 -17 3 -23 0 -5 5 -10 10 -10
4 0 7 12 5 26 -3 28 -10 40 -16 27z"/>
<path d="M3043 717 c0 -8 6 -14 13 -14 7 0 10 6 7 14 -3 7 -8 13 -12 13 -4 0
-8 -6 -8 -13z"/>
<path d="M2694 704 c7 -19 -27 -57 -40 -46 -4 4 -4 1 0 -5 5 -10 15 -7 37 9
32 24 37 43 13 52 -12 5 -15 2 -10 -10z"/>
<path d="M2813 610 c-1 -11 2 -18 7 -15 4 3 11 -1 13 -7 3 -7 6 -8 6 -2 1 5
-5 18 -12 28 -12 16 -13 16 -14 -4z"/>
<path d="M585 7170 c-4 -6 -11 -8 -16 -5 -16 10 -10 -2 9 -16 9 -7 14 -9 10
-5 -4 5 -3 15 3 23 6 7 9 13 6 13 -3 0 -9 -5 -12 -10z"/>
<path d="M615 7140 c-16 -7 -17 -9 -3 -9 9 -1 20 4 23 9 7 11 7 11 -20 0z"/>
<path d="M6910 7114 c-232 -76 -625 -179 -932 -246 -65 -13 -108 -28 -108 -35
0 -6 18 -79 40 -160 22 -81 40 -165 40 -187 0 -37 1 -38 28 -32 15 3 90 17
167 31 190 36 364 72 460 96 163 42 525 147 525 153 0 1 -11 29 -24 62 -35 85
-57 177 -64 268 -4 44 -11 80 -17 82 -5 1 -57 -13 -115 -32z m30 -142 c50 -51
52 -131 4 -179 -22 -22 -28 -23 -39 -12 -15 16 -66 205 -57 213 16 16 66 4 92
-22z m-130 -16 c0 -7 -13 -16 -29 -19 -24 -5 -28 -10 -23 -32 4 -21 9 -26 30
-23 32 4 42 -21 12 -29 -17 -5 -20 -11 -15 -32 9 -34 8 -33 38 -22 18 7 28 7
33 0 8 -14 -3 -24 -43 -37 -40 -13 -44 -8 -72 85 -26 89 -26 102 2 113 34 13
67 12 67 -4z m-141 -32 c18 -13 22 -23 19 -53 -3 -20 -8 -43 -12 -52 -5 -11 3
-21 29 -34 36 -20 47 -45 20 -45 -9 0 -26 7 -39 15 -23 15 -23 15 -19 -10 4
-18 1 -25 -10 -25 -9 0 -18 8 -20 18 -3 9 -15 52 -28 94 -18 63 -19 80 -9 93
16 19 40 19 69 -1z m-111 -49 c25 -31 46 -117 38 -150 -8 -31 -42 -42 -66 -20
-35 31 -60 136 -44 179 9 24 50 19 72 -9z m-120 -18 c2 -12 -3 -17 -17 -17
-27 0 -27 -27 -1 -35 55 -18 80 -106 36 -127 -30 -13 -56 -5 -56 18 0 12 6 15
21 11 41 -11 34 24 -14 68 -26 24 -47 48 -47 54 0 18 40 52 58 49 9 -2 18 -11
20 -21z m-87 -103 c16 -69 19 -98 11 -106 -14 -14 -37 3 -64 47 l-19 30 7 -30
c11 -43 10 -64 -1 -67 -12 -4 -42 88 -51 155 -9 63 7 61 54 -7 35 -52 38 -51
21 7 -11 40 -7 67 10 67 5 0 20 -43 32 -96z m-161 42 c0 -7 -14 -16 -31 -20
-23 -4 -30 -10 -25 -22 3 -9 6 -23 6 -31 0 -11 7 -14 24 -9 33 8 42 -9 15 -27
-30 -21 -18 -55 19 -53 39 2 37 -17 -3 -31 -41 -14 -45 -11 -74 76 -28 86 -28
118 2 124 46 9 67 7 67 -7z m-120 -31 c0 -8 -4 -15 -9 -15 -20 0 -41 -33 -41
-64 0 -41 32 -76 70 -76 33 0 49 -18 29 -31 -23 -15 -72 1 -101 32 -36 37 -39
103 -7 143 22 28 59 35 59 11z"/>
<path d="M6884 6953 c3 -10 12 -44 21 -76 13 -44 20 -56 28 -48 21 21 14 88
-12 115 -28 30 -45 34 -37 9z"/>
<path d="M6627 6904 c-3 -3 -1 -19 5 -35 11 -31 28 -30 28 0 0 20 -23 45 -33
35z"/>
<path d="M6510 6854 c0 -32 30 -124 40 -124 16 0 18 15 5 63 -14 55 -45 97
-45 61z"/>
<path d="M1190 7095 c-8 -9 -8 -15 -2 -15 12 0 26 19 19 26 -2 2 -10 -2 -17
-11z"/>
<path d="M616 7072 c-2 -4 4 -8 14 -8 10 0 16 4 14 8 -3 4 -9 8 -14 8 -5 0
-11 -4 -14 -8z"/>
<path d="M630 7037 c0 -7 -11 -19 -25 -25 -14 -6 -25 -17 -25 -24 0 -10 2 -10
8 -1 4 6 16 11 27 10 11 -1 20 3 20 8 0 6 4 15 8 22 4 6 3 14 -3 18 -5 3 -10
0 -10 -8z"/>
<path d="M508 7003 c7 -3 16 -2 19 1 4 3 -2 6 -13 5 -11 0 -14 -3 -6 -6z"/>
<path d="M775 6880 c3 -5 8 -10 11 -10 2 0 4 5 4 10 0 6 -5 10 -11 10 -5 0 -7
-4 -4 -10z"/>
<path d="M940 6633 c5 -2 10 -13 10 -24 0 -10 4 -19 10 -19 13 0 -4 43 -19 46
-6 1 -7 0 -1 -3z"/>
<path d="M980 6530 c0 -6 7 -10 15 -10 8 0 15 2 15 4 0 2 -7 6 -15 10 -8 3
-15 1 -15 -4z"/>
<path d="M1045 6479 c-4 -6 -5 -12 -2 -15 2 -3 7 2 10 11 7 17 1 20 -8 4z"/>
<path d="M2 6279 c2 -7 10 -15 17 -17 8 -3 12 1 9 9 -2 7 -10 15 -17 17 -8 3
-12 -1 -9 -9z"/>
<path d="M3 6230 c2 -23 5 -26 16 -17 10 9 10 12 1 15 -9 3 -10 6 0 12 8 5 8
9 -4 13 -12 5 -15 0 -13 -23z"/>
<path d="M37 6163 c-4 -3 -7 -11 -7 -17 0 -6 5 -4 11 4 8 12 10 9 6 -12 -2
-16 2 -33 9 -39 8 -6 12 -15 9 -19 -3 -5 4 -6 15 -3 22 6 21 30 0 25 -10 -2
-10 1 -4 10 7 9 4 20 -11 35 -12 13 -25 20 -28 16z"/>
<path d="M771 6060 c19 -25 39 -32 39 -14 0 3 -4 3 -9 -1 -5 -3 -12 3 -16 14
-3 11 -12 22 -20 25 -10 4 -8 -4 6 -24z"/>
<path d="M730 6070 c0 -7 -3 -10 -6 -7 -4 3 -16 -5 -26 -19 -11 -14 -18 -28
-14 -31 3 -4 6 -1 6 6 0 8 6 11 16 7 8 -3 12 -2 9 4 -3 6 -2 10 3 10 11 0 25
30 17 38 -3 3 -5 -1 -5 -8z"/>
<path d="M92 6050 c7 -14 17 -41 23 -60 7 -24 17 -36 33 -38 22 -3 30 12 13
22 -5 3 -7 16 -3 28 3 14 2 19 -6 14 -11 -6 -16 5 -13 26 0 4 -6 5 -15 1 -8
-3 -21 3 -30 13 -14 17 -14 17 -2 -6z m42 -46 c3 -8 2 -12 -4 -9 -6 3 -10 10
-10 16 0 14 7 11 14 -7z"/>
<path d="M661 6024 c0 -11 3 -14 6 -6 3 7 2 16 -1 19 -3 4 -6 -2 -5 -13z"/>
<path d="M610 6006 c0 -9 30 -14 35 -6 4 6 -3 10 -14 10 -12 0 -21 -2 -21 -4z"/>
<path d="M758 6003 c7 -3 16 -2 19 1 4 3 -2 6 -13 5 -11 0 -14 -3 -6 -6z"/>
<path d="M575 5970 c-3 -5 -1 -10 4 -10 6 0 11 5 11 10 0 6 -2 10 -4 10 -3 0
-8 -4 -11 -10z"/>
<path d="M517 5929 c-7 -9 -19 -18 -27 -22 -12 -4 -11 -6 3 -6 9 -1 18 -7 18
-13 1 -7 4 0 8 16 4 18 13 30 24 32 27 4 33 13 7 11 -12 -1 -27 -9 -33 -18z"/>
<path d="M531 5904 c0 -11 3 -14 6 -6 3 7 2 16 -1 19 -3 4 -6 -2 -5 -13z"/>
<path d="M158 5903 c7 -3 16 -2 19 1 4 3 -2 6 -13 5 -11 0 -14 -3 -6 -6z"/>
<path d="M616 5891 c-4 -5 3 -7 14 -4 23 6 26 13 6 13 -8 0 -17 -4 -20 -9z"/>
<path d="M168 5883 c7 -3 16 -2 19 1 4 3 -2 6 -13 5 -11 0 -14 -3 -6 -6z"/>
<path d="M475 5880 c-3 -6 2 -13 12 -17 10 -4 21 -11 24 -16 3 -5 9 -2 12 7 5
11 0 16 -14 16 -11 0 -17 5 -14 10 3 6 2 10 -4 10 -5 0 -13 -5 -16 -10z"/>
<path d="M160 5862 c1 -4 7 -18 14 -31 7 -13 11 -33 9 -45 -4 -18 -2 -17 10 4
11 19 11 27 2 35 -6 6 -10 15 -8 21 2 6 -3 14 -12 17 -8 4 -15 3 -15 -1z"/>
<path d="M493 5830 c14 -11 28 -20 31 -20 3 0 -3 9 -14 20 -11 11 -25 20 -31
20 -7 0 0 -9 14 -20z"/>
<path d="M465 5808 c-8 -32 2 -68 24 -86 9 -8 11 -11 4 -8 -7 4 -11 -1 -10
-14 1 -20 2 -20 14 -3 8 9 11 23 9 30 -3 7 -1 13 4 13 5 0 7 7 4 15 -4 8 -10
12 -15 10 -5 -3 -11 7 -15 22 -10 47 -11 49 -19 21z"/>
<path d="M6276 5591 c-3 -5 2 -15 12 -22 15 -12 16 -12 5 2 -7 9 -10 19 -6 22
3 4 4 7 0 7 -3 0 -8 -4 -11 -9z"/>
<path d="M6926 5323 c-6 -14 -5 -15 5 -6 7 7 10 15 7 18 -3 3 -9 -2 -12 -12z"/>
<path d="M7051 5284 c1 -21 16 -47 21 -38 4 5 0 18 -8 29 -8 10 -14 15 -13 9z"/>
<path d="M7075 5231 c-3 -5 -2 -12 3 -15 5 -3 9 1 9 9 0 17 -3 19 -12 6z"/>
<path d="M6890 5035 c0 -8 4 -15 10 -15 5 0 7 7 4 15 -4 8 -8 15 -10 15 -2 0
-4 -7 -4 -15z"/>
<path d="M6601 5021 c-9 -6 -10 -11 -2 -15 6 -4 9 -12 6 -17 -4 -5 -1 -9 4 -9
6 0 10 11 9 25 -1 14 -3 25 -3 25 0 0 -6 -4 -14 -9z"/>
<path d="M6641 4977 c-1 -11 -6 -15 -13 -11 -7 5 -8 3 -3 -5 10 -16 29 2 22
21 -4 8 -6 7 -6 -5z"/>
<path d="M6355 4960 c3 -5 8 -10 11 -10 2 0 4 5 4 10 0 6 -5 10 -11 10 -5 0
-7 -4 -4 -10z"/>
<path d="M6593 4955 c0 -8 4 -15 9 -15 4 0 8 7 8 15 0 8 -4 15 -8 15 -5 0 -9
-7 -9 -15z"/>
<path d="M6342 4924 c10 -10 20 -16 22 -13 3 3 -5 11 -17 18 -21 13 -21 12 -5
-5z"/>
<path d="M6580 4921 c0 -17 15 -19 28 -5 11 12 9 14 -8 14 -11 0 -20 -4 -20
-9z"/>
<path d="M6574 4892 c3 -5 0 -13 -6 -15 -9 -4 -10 -6 -1 -6 17 -1 25 16 12 25
-7 4 -9 3 -5 -4z"/>
<path d="M6990 4860 c0 -5 7 -10 16 -10 8 0 12 5 9 10 -3 6 -10 10 -16 10 -5
0 -9 -4 -9 -10z"/>
<path d="M7006 4829 c3 -5 11 -9 19 -9 7 0 16 -6 18 -12 4 -10 6 -10 6 -1 1
13 -16 26 -37 29 -6 1 -10 -2 -6 -7z"/>
<path d="M7013 4795 c-3 -9 -3 -18 -1 -21 3 -3 8 4 11 16 6 23 -1 27 -10 5z"/>
<path d="M7051 4751 c-10 -6 -10 -10 -1 -16 13 -8 24 -1 19 14 -3 6 -10 7 -18
2z"/>
<path d="M7106 4718 c4 -13 1 -15 -15 -11 -12 3 -21 1 -21 -6 0 -5 7 -8 15 -5
10 4 15 0 15 -14 0 -12 5 -24 12 -28 8 -5 9 -2 5 9 -3 9 -2 19 3 22 4 3 11 -1
13 -7 4 -8 6 -9 6 -2 1 7 -8 22 -19 35 -13 15 -18 18 -14 7z"/>
<path d="M7130 4646 c0 -9 5 -16 10 -16 6 0 10 4 10 9 0 6 -4 13 -10 16 -5 3
-10 -1 -10 -9z"/>
<path d="M4030 4630 c0 -5 5 -10 11 -10 5 0 7 5 4 10 -3 6 -8 10 -11 10 -2 0
-4 -4 -4 -10z"/>
<path d="M4117 4620 c3 -11 10 -23 16 -27 7 -4 8 0 4 11 -4 10 -7 22 -7 27 0
5 -4 9 -9 9 -5 0 -7 -9 -4 -20z"/>
<path d="M3687 4618 c-15 -12 -14 -13 10 -14 16 -1 22 1 15 3 -6 3 -10 9 -6
14 7 12 1 11 -19 -3z"/>
<path d="M3577 4613 c-14 -13 -6 -23 18 -21 14 1 25 5 25 9 0 4 9 5 20 2 11
-3 20 -1 20 4 0 11 -34 9 -64 -3 -14 -5 -17 -4 -12 4 8 13 3 16 -7 5z"/>
<path d="M7157 4614 c-8 -9 9 -40 26 -47 8 -3 14 4 15 20 1 15 -2 22 -9 17 -6
-3 -14 -1 -18 5 -4 6 -10 8 -14 5z"/>
<path d="M3390 4600 c0 -5 0 -12 0 -15 0 -3 3 -4 8 -2 4 1 6 6 4 11 -2 5 4 6
13 2 9 -3 13 -2 10 4 -8 13 -35 13 -35 0z"/>
<path d="M3445 4600 c-3 -5 1 -10 10 -10 9 0 13 5 10 10 -3 6 -8 10 -10 10 -2
0 -7 -4 -10 -10z"/>
<path d="M3786 4595 c-9 -26 -7 -32 5 -12 6 10 9 21 6 23 -2 3 -7 -2 -11 -11z"/>
<path d="M3993 4603 c-7 -2 -13 -9 -13 -14 0 -6 4 -8 9 -5 5 4 11 3 14 -1 2
-5 2 -3 1 4 -2 6 5 14 14 16 12 3 13 5 2 5 -8 0 -21 -2 -27 -5z"/>
<path d="M4176 4593 c-6 -14 -5 -15 5 -6 7 7 10 15 7 18 -3 3 -9 -2 -12 -12z"/>
<path d="M3485 4591 c-3 -5 -2 -12 3 -15 5 -3 9 1 9 9 0 17 -3 19 -12 6z"/>
<path d="M3540 4589 c0 -5 -4 -8 -9 -4 -15 9 -24 -14 -16 -43 4 -18 9 -22 14
-13 5 7 11 12 15 11 4 -1 12 0 18 2 9 3 9 6 0 12 -7 4 -12 3 -12 -3 0 -6 -7
-8 -15 -5 -8 4 -15 14 -15 23 0 14 2 14 10 1 6 -9 10 -11 10 -3 0 7 7 10 15 7
11 -5 13 -2 9 10 -7 18 -24 22 -24 5z"/>
<path d="M4058 4593 c7 -3 16 -2 19 1 4 3 -2 6 -13 5 -11 0 -14 -3 -6 -6z"/>
<path d="M3678 4583 c7 -3 16 -2 19 1 4 3 -2 6 -13 5 -11 0 -14 -3 -6 -6z"/>
<path d="M0 4437 c0 -139 10 -186 24 -115 4 21 2 34 -6 40 -9 5 -7 8 7 8 20 1
20 1 1 15 -16 12 -17 15 -4 15 9 0 19 7 22 16 3 8 2 12 -4 9 -6 -3 -10 3 -10
15 0 14 -4 19 -13 14 -6 -4 -5 1 4 10 13 14 14 24 4 61 -6 24 -14 47 -18 51
-4 4 -7 -59 -7 -139z"/>
<path d="M3604 4556 c0 -14 7 -28 14 -31 16 -6 15 15 -2 38 -13 17 -14 16 -12
-7z"/>
<path d="M3715 4571 c-3 -5 -1 -12 5 -16 5 -3 10 1 10 9 0 18 -6 21 -15 7z"/>
<path d="M4060 4571 c0 -6 5 -10 12 -8 6 1 13 -7 15 -18 3 -17 2 -18 -7 -5 -9
11 -13 12 -17 2 -2 -6 -9 -10 -13 -7 -5 3 -11 1 -14 -4 -3 -5 1 -11 9 -15 8
-3 15 -1 15 5 0 6 6 9 14 6 7 -3 20 3 29 13 14 16 14 19 -1 24 -10 3 -23 9
-29 12 -7 3 -13 1 -13 -5z"/>
<path d="M4135 4560 c10 -11 20 -20 23 -20 3 0 -3 9 -13 20 -10 11 -20 20 -23
20 -3 0 3 -9 13 -20z"/>
<path d="M3646 4558 c3 -5 10 -6 15 -3 13 9 11 12 -6 12 -8 0 -12 -4 -9 -9z"/>
<path d="M3679 4553 c-13 -16 -12 -17 4 -4 9 7 17 15 17 17 0 8 -8 3 -21 -13z"/>
<path d="M4195 4560 c-19 -8 -19 -9 3 -9 12 -1 22 4 22 9 0 6 -1 10 -2 9 -2 0
-12 -4 -23 -9z"/>
<path d="M4240 4541 c0 -10 19 -25 25 -20 1 2 -3 10 -11 17 -8 7 -14 8 -14 3z"/>
<path d="M3750 4530 c-13 -8 -13 -10 2 -10 9 0 20 5 23 10 8 13 -5 13 -25 0z"/>
<path d="M4110 4525 c0 -8 2 -15 4 -15 2 0 6 7 10 15 3 8 1 15 -4 15 -6 0 -10
-7 -10 -15z"/>
<path d="M4187 4533 c-4 -3 -7 -14 -7 -24 0 -10 -9 -23 -20 -29 -15 -8 -20 -8
-18 1 4 16 -49 31 -56 16 -3 -8 -5 -7 -5 1 -1 10 -6 9 -18 -4 -13 -13 -14 -19
-5 -22 20 -6 14 -21 -8 -17 -11 2 -20 -1 -20 -6 0 -6 -6 -7 -12 -3 -10 5 -10
4 -1 -6 8 -9 9 -19 3 -30 -8 -15 -4 -19 23 -26 l32 -8 -32 -3 c-18 -3 -33 -9
-33 -14 0 -6 5 -7 10 -4 6 3 10 -2 10 -12 0 -15 2 -16 10 -3 5 8 10 11 11 5 0
-5 2 -18 4 -28 3 -15 1 -16 -11 -6 -11 9 -18 9 -26 1 -12 -12 -1 -35 14 -26
19 12 -11 -34 -32 -49 -11 -8 -17 -17 -14 -20 4 -4 1 -13 -5 -21 -9 -11 -9
-16 0 -22 8 -4 9 -3 5 4 -4 7 -2 12 3 12 6 0 11 -12 11 -27 0 -23 5 -20 42 33
24 32 41 63 40 69 -2 5 0 7 3 3 4 -4 31 13 59 38 80 71 232 141 376 174 19 4
27 8 18 9 -10 0 -18 4 -18 9 0 4 -16 8 -35 8 -19 1 -32 -2 -30 -7 3 -4 -5 -5
-17 -2 -13 3 -61 6 -108 7 -72 1 -88 4 -102 21 -19 22 -24 14 -8 -15 7 -13 6
-19 -5 -23 -15 -6 -31 26 -20 43 7 11 2 13 -8 3z m73 -63 c0 -13 -11 -13 -30
0 -12 8 -11 10 8 10 12 0 22 -4 22 -10z m-167 -30 c-7 -28 -13 -25 -13 6 0 14
4 23 9 20 5 -3 7 -15 4 -26z m-26 -36 c-3 -3 -12 -4 -19 -1 -8 3 -5 6 6 6 11
1 17 -2 13 -5z m13 -48 c0 -3 -4 -8 -10 -11 -5 -3 -10 -1 -10 4 0 6 5 11 10
11 6 0 10 -2 10 -4z m-63 -141 c0 -8 -4 -15 -9 -15 -10 0 -11 14 -1 23 9 10
10 9 10 -8z"/>
<path d="M3568 4523 c7 -3 16 -2 19 1 4 3 -2 6 -13 5 -11 0 -14 -3 -6 -6z"/>
<path d="M4140 4521 c0 -6 4 -12 8 -15 5 -3 9 1 9 9 0 8 -4 15 -9 15 -4 0 -8
-4 -8 -9z"/>
<path d="M3553 4503 c-15 -5 -17 -23 -4 -23 5 0 11 7 15 15 3 8 4 15 3 14 -1
0 -8 -3 -14 -6z"/>
<path d="M3597 4503 c-3 -5 6 -9 20 -10 19 -1 22 1 12 8 -17 11 -26 11 -32 2z"/>
<path d="M4003 4494 c1 -15 6 -20 19 -16 10 2 15 8 12 13 -3 5 -9 7 -14 4 -4
-3 -10 1 -13 7 -3 7 -5 4 -4 -8z"/>
<path d="M4615 4480 c11 -5 52 -18 91 -29 91 -26 199 -98 285 -187 76 -79 87
-98 124 -214 37 -114 40 -264 7 -354 -71 -193 -229 -338 -418 -382 -48 -11
-102 -15 -174 -12 -95 3 -112 6 -172 36 -143 70 -250 238 -277 437 -20 141 13
249 106 346 119 125 305 191 469 168 93 -13 147 -40 207 -102 102 -107 154
-244 143 -379 -16 -197 -96 -310 -254 -363 -83 -27 -227 -18 -309 19 -153 70
-235 249 -187 409 24 83 102 164 188 196 67 25 167 29 237 11 109 -30 186
-123 196 -239 7 -72 -9 -129 -50 -182 -80 -104 -243 -119 -328 -29 -96 101
-88 250 16 300 105 51 215 -18 215 -135 0 -27 -8 -44 -29 -66 -35 -34 -68 -37
-105 -8 -31 24 -33 72 -4 77 12 2 16 -4 15 -29 -3 -59 59 -66 74 -8 27 109
-133 153 -170 47 -20 -58 -14 -95 23 -136 34 -36 36 -37 105 -37 64 0 72 3
101 30 45 43 60 77 60 137 -1 140 -116 233 -255 207 -113 -21 -178 -107 -179
-234 0 -115 54 -207 149 -251 61 -29 167 -32 238 -8 108 37 198 164 198 282 1
215 -148 362 -366 362 -165 0 -309 -87 -378 -230 -29 -60 -31 -73 -32 -170 0
-99 2 -109 33 -172 41 -85 129 -168 207 -197 191 -72 392 -41 520 80 103 97
140 190 140 354 0 131 -24 220 -88 318 -99 155 -209 217 -388 217 -228 0 -454
-131 -544 -315 -76 -154 -68 -333 21 -515 37 -74 62 -110 118 -166 39 -39 92
-80 119 -92 221 -103 526 -43 708 138 170 170 233 378 179 596 -26 103 -75
205 -132 269 -75 85 -228 187 -298 199 -63 11 -176 15 -155 6z"/>
<path d="M3596 4401 c-4 -7 -5 -15 -2 -18 9 -9 19 4 14 18 -4 11 -6 11 -12 0z"/>
<path d="M3542 4360 c0 -14 2 -19 5 -12 2 6 2 18 0 25 -3 6 -5 1 -5 -13z"/>
<path d="M3986 4332 c-3 -5 1 -9 9 -9 8 0 15 4 15 9 0 4 -4 8 -9 8 -6 0 -12
-4 -15 -8z"/>
<path d="M3560 4305 c-7 -9 -8 -15 -2 -15 5 0 12 7 16 15 3 8 4 15 2 15 -2 0
-9 -7 -16 -15z"/>
<path d="M7188 4273 c-6 -90 -5 -114 3 -119 5 -3 9 29 9 70 0 73 -8 106 -12
49z"/>
<path d="M3558 4273 c7 -3 16 -2 19 1 4 3 -2 6 -13 5 -11 0 -14 -3 -6 -6z"/>
<path d="M3534 4215 c6 -19 11 -33 12 -32 1 1 4 16 7 32 5 25 2 31 -12 32 -15
1 -16 -3 -7 -32z"/>
<path d="M6023 4215 c0 -8 4 -12 9 -9 4 3 8 9 8 15 0 5 -4 9 -8 9 -5 0 -9 -7
-9 -15z"/>
<path d="M3580 4200 c-9 -6 -10 -10 -3 -10 6 0 15 5 18 10 8 12 4 12 -15 0z"/>
<path d="M3587 4167 c-14 -21 -13 -23 4 -24 10 -1 21 2 24 8 3 5 -1 6 -11 2
-14 -5 -15 -3 -5 15 15 29 7 28 -12 -1z"/>
<path d="M6001 4159 c-7 -16 -10 -33 -7 -36 3 -4 6 2 6 13 0 14 3 15 9 6 5 -9
8 -3 9 17 0 17 0 31 -1 31 -1 0 -8 -14 -16 -31z"/>
<path d="M5995 4101 c-3 -5 -2 -12 3 -15 5 -3 9 1 9 9 0 17 -3 19 -12 6z"/>
<path d="M260 4065 c-7 -9 -8 -15 -2 -15 5 0 12 7 16 15 3 8 4 15 2 15 -2 0
-9 -7 -16 -15z"/>
<path d="M6998 4022 c-3 -11 0 -19 8 -19 16 0 19 23 5 31 -5 3 -11 -2 -13 -12z"/>
<path d="M3570 3979 c0 -5 5 -7 10 -4 6 3 10 8 10 11 0 2 -4 4 -10 4 -5 0 -10
-5 -10 -11z"/>
<path d="M3670 3901 c-14 -4 -40 -16 -58 -25 l-33 -17 7 -62 c4 -34 8 -63 9
-65 1 -2 24 12 50 29 69 47 131 50 208 11 l57 -29 0 59 0 59 -47 21 c-51 23
-151 33 -193 19z"/>
<path d="M2005 3870 c-3 -5 -2 -10 4 -10 5 0 13 5 16 10 3 6 2 10 -4 10 -5 0
-13 -4 -16 -10z"/>
<path d="M1984 3842 c4 -7 2 -19 -4 -27 -7 -9 -8 -15 -2 -15 16 0 24 32 11 44
-9 8 -10 8 -5 -2z"/>
<path d="M1975 3780 c-3 -5 4 -10 15 -10 15 0 20 -5 17 -15 -4 -8 -2 -17 3
-20 6 -4 10 3 10 14 0 23 -35 47 -45 31z"/>
<path d="M1871 3744 c0 -11 3 -14 6 -6 3 7 2 16 -1 19 -3 4 -6 -2 -5 -13z"/>
<path d="M1867 3699 c4 -13 8 -18 11 -10 2 7 -1 18 -6 23 -8 8 -9 4 -5 -13z"/>
<path d="M2030 3683 c0 -10 4 -14 8 -8 4 6 11 13 16 18 5 4 2 7 -7 7 -10 0
-17 -8 -17 -17z"/>
<path d="M2180 3650 c0 -5 5 -10 10 -10 6 0 10 5 10 10 0 6 -4 10 -10 10 -5 0
-10 -4 -10 -10z"/>
<path d="M1790 3567 c-19 -15 -21 -54 -4 -61 14 -5 19 10 16 47 -1 11 2 16 10
11 7 -4 8 -3 4 4 -9 14 -7 14 -26 -1z m10 -27 c0 -5 -5 -10 -11 -10 -5 0 -7 5
-4 10 3 6 8 10 11 10 2 0 4 -4 4 -10z"/>
<path d="M1725 3542 c-2 -3 -2 -8 1 -13 5 -9 34 -1 34 10 0 8 -27 10 -35 3z"/>
<path d="M1774 3479 c-3 -6 -2 -15 3 -20 5 -5 9 -1 9 11 0 23 -2 24 -12 9z"/>
<path d="M5369 3087 c6 -8 7 -18 3 -22 -4 -5 -1 -5 6 -1 10 6 10 11 1 22 -6 8
-14 14 -16 14 -3 0 0 -6 6 -13z"/>
<path d="M5405 3081 c3 -5 1 -12 -5 -16 -5 -3 -10 -12 -10 -18 0 -7 5 -4 11 6
5 9 19 17 30 17 11 0 17 5 14 10 -3 6 -15 10 -26 10 -11 0 -18 -4 -14 -9z"/>
<path d="M4280 2900 c0 -5 7 -7 15 -4 8 4 15 8 15 10 0 2 -7 4 -15 4 -8 0 -15
-4 -15 -10z"/>
<path d="M4188 2888 c-16 -5 -28 -14 -28 -19 0 -5 -7 -9 -16 -9 -8 0 -12 -5
-9 -11 4 -6 14 -8 22 -5 8 3 11 1 8 -4 -3 -6 1 -10 9 -10 9 0 16 -4 16 -10 0
-13 -13 -13 -25 -1 -6 6 -16 3 -25 -7 -13 -14 -12 -15 2 -9 9 3 18 1 20 -4 2
-6 15 -1 29 10 15 11 29 17 33 14 5 -6 10 29 7 50 -2 12 17 8 21 -5 3 -8 7 -6
11 5 3 9 3 16 -1 16 -4 -1 -9 0 -12 1 -18 7 -39 6 -62 -2z"/>
<path d="M3485 2869 c-4 -6 -13 -8 -21 -5 -8 3 -14 0 -14 -7 0 -7 10 -13 21
-14 12 -1 19 1 15 4 -3 3 -1 12 5 20 6 7 9 13 6 13 -3 0 -9 -5 -12 -11z"/>
<path d="M3518 2867 c-22 -18 -32 -51 -13 -43 9 3 15 0 15 -11 0 -13 3 -13 15
-3 13 10 18 11 28 1 9 -10 8 -11 -8 -5 -18 7 -18 6 -6 -9 11 -14 17 -15 30 -5
10 8 9 5 -3 -10 -17 -19 -17 -22 -3 -22 10 0 17 5 17 10 0 6 9 10 20 10 14 0
18 -5 14 -17 -3 -10 2 -6 10 8 8 15 23 29 32 33 12 5 14 9 5 20 -6 7 -7 17 -3
21 4 5 2 5 -5 2 -6 -4 -13 -3 -15 3 -2 6 -24 12 -50 14 -26 2 -51 7 -56 10 -5
3 -16 0 -24 -7z m13 -24 c13 -16 12 -17 -3 -4 -10 7 -18 15 -18 17 0 8 8 3 21
-13z"/>
<path d="M1765 2821 c-3 -5 -2 -12 3 -15 5 -3 9 1 9 9 0 17 -3 19 -12 6z"/>
<path d="M3436 2784 c-15 -14 -14 -34 1 -34 4 0 3 3 0 7 -4 3 0 15 10 25 20
22 11 24 -11 2z"/>
<path d="M3525 2777 c11 -9 15 -19 10 -27 -5 -8 -4 -11 3 -6 6 3 13 2 16 -3 4
-5 2 -12 -4 -16 -5 -3 -10 -17 -10 -30 0 -18 4 -23 16 -18 10 4 12 8 4 13 -6
3 -8 14 -4 23 13 34 25 -1 15 -43 0 -3 -11 -7 -23 -7 -13 -1 -24 -7 -26 -13
-5 -15 -22 -12 -22 5 0 17 -16 20 -25 5 -3 -5 -1 -10 4 -10 6 0 11 -5 11 -11
0 -6 -7 -8 -16 -5 -10 4 -23 -3 -35 -16 -16 -20 -20 -21 -29 -8 -13 19 -13 30
1 30 5 0 8 -4 4 -9 -3 -5 0 -13 6 -17 8 -4 9 -3 5 4 -4 7 -2 12 5 12 7 0 4 6
-7 14 -10 8 -21 10 -22 5 -2 -5 -9 -6 -14 -3 -7 4 -8 2 -4 -4 4 -7 2 -12 -3
-12 -6 0 -11 -12 -11 -26 0 -14 4 -23 10 -19 6 3 10 2 10 -3 0 -5 -13 -9 -29
-8 -16 1 -27 4 -24 9 2 4 -1 7 -7 7 -6 0 -9 4 -6 9 4 5 -4 7 -16 4 -19 -4 -20
-3 -8 6 13 9 12 11 -3 11 -11 0 -17 -6 -15 -16 4 -22 -47 -52 -89 -53 -17 -1
-35 -5 -38 -11 -4 -6 1 -7 12 -4 16 5 16 4 -1 -10 -22 -18 -41 -21 -31 -7 3 5
1 12 -5 16 -5 3 -10 -2 -10 -12 0 -15 -2 -16 -10 -3 -8 13 -10 13 -10 -2 0
-10 -9 -22 -20 -28 -11 -6 -20 -8 -20 -4 0 3 -7 1 -15 -6 -13 -11 -14 -10 -10
3 4 8 2 18 -4 22 -6 3 -11 -1 -11 -9 0 -9 -6 -16 -12 -16 -9 0 -8 -4 2 -10 13
-8 12 -10 -2 -10 -10 0 -18 5 -18 10 0 6 -6 5 -14 -2 -8 -7 -12 -15 -10 -17 5
-5 -28 -30 -39 -31 -5 0 -5 10 -1 22 6 20 5 21 -8 10 -10 -7 -27 -10 -48 -6
-31 7 -32 6 -21 -15 11 -21 11 -21 -8 -9 -12 7 -21 15 -21 19 0 11 -30 6 -30
-5 0 -6 -5 -3 -11 7 -7 12 -14 15 -22 9 -7 -5 -28 -13 -47 -16 -23 -5 -30 -4
-21 2 10 7 4 9 -19 7 -18 -1 -36 -8 -40 -15 -4 -7 -15 -10 -24 -7 -8 3 -18 1
-22 -4 -3 -6 -15 -9 -25 -6 -11 3 -19 1 -19 -5 0 -6 -7 -7 -16 -4 -8 3 -13 2
-10 -3 3 -5 0 -11 -8 -14 -10 -4 -12 0 -9 14 3 10 9 19 13 19 5 0 16 7 24 16
9 8 16 11 16 5 0 -6 7 -8 16 -4 13 5 13 7 2 14 -10 7 -10 9 0 9 6 0 12 4 12 9
0 5 -10 7 -22 3 -26 -6 -94 -62 -91 -74 2 -4 -3 -5 -11 -2 -8 3 -21 -4 -29
-16 -9 -13 -21 -19 -29 -15 -8 4 -7 1 2 -7 16 -14 20 -51 7 -64 -10 -11 3 -74
22 -103 15 -24 15 -24 -7 -19 -12 4 -20 2 -16 -3 3 -5 12 -9 20 -9 8 0 14 -5
14 -11 0 -6 7 -8 16 -5 13 5 14 4 6 -7 -7 -8 -9 -17 -5 -20 3 -4 -2 -17 -13
-28 -19 -21 -19 -22 3 -15 31 10 64 -13 57 -40 -4 -16 0 -23 16 -27 12 -3 19
-10 16 -16 -4 -6 5 -6 26 0 18 5 52 12 75 14 35 4 41 2 37 -10 -4 -8 -11 -12
-17 -8 -6 3 -7 1 -3 -6 5 -8 12 -9 19 -3 21 17 125 30 138 18 9 -8 10 -8 5 2
-5 8 0 12 13 12 11 0 22 4 26 10 3 5 11 7 18 4 18 -6 69 21 59 32 -4 4 1 2 11
-6 15 -11 18 -11 15 0 -2 8 5 14 17 14 11 0 23 5 27 11 5 6 8 4 8 -5 0 -13 1
-13 10 0 9 13 11 13 20 0 9 -13 11 -13 20 0 8 13 10 13 10 -2 0 -17 26 -18 51
-3 6 4 9 1 7 -7 -2 -7 2 -13 7 -13 6 0 9 3 8 6 -1 3 4 6 12 6 8 0 12 -4 9 -9
-3 -4 0 -8 6 -8 6 0 9 -4 6 -8 -2 -4 6 -8 20 -8 13 0 24 4 24 8 0 4 8 8 18 7
10 0 12 -3 5 -6 -20 -7 -15 -22 6 -20 11 1 17 6 14 14 -4 9 0 11 11 7 9 -3 16
-9 16 -13 0 -4 12 -13 26 -19 14 -7 23 -8 19 -2 -3 5 3 10 14 10 12 0 21 -6
21 -12 0 -9 3 -8 10 2 8 12 10 12 16 -3 6 -17 8 -17 25 -1 18 16 19 16 19 -1
0 -14 3 -15 15 -5 10 9 15 9 15 1 0 -6 5 -11 10 -11 14 0 12 27 -2 33 -10 4
-10 7 0 18 11 12 13 12 10 -1 -2 -8 3 -14 10 -12 6 1 12 -7 12 -18 0 -12 7
-20 18 -20 14 0 15 2 2 10 -13 8 -12 10 3 10 11 0 15 5 11 11 -4 7 3 6 17 -2
13 -7 30 -12 38 -10 9 1 12 -3 8 -12 -3 -9 1 -18 10 -21 12 -5 14 -1 10 21 -4
16 -4 22 -1 15 5 -10 9 -10 21 -1 11 10 13 10 11 -1 -2 -9 10 -14 36 -16 22
-2 42 -7 45 -11 7 -11 27 -11 37 0 4 4 -3 7 -15 7 -18 0 -21 4 -17 26 6 31 11
37 31 40 17 3 18 -1 6 -24 -6 -11 -5 -23 3 -34 11 -15 15 -13 37 22 15 25 29
38 38 34 11 -4 11 0 -2 14 -14 15 -14 19 -2 19 8 0 12 -4 9 -9 -3 -4 4 -8 15
-8 15 0 19 -4 14 -17 -6 -15 -5 -16 9 -3 13 13 13 16 1 25 -12 9 -10 11 9 13
21 1 67 8 78 11 3 1 -2 6 -10 11 -10 7 -11 10 -2 10 7 0 15 -6 17 -12 7 -16
73 -16 102 0 26 15 36 15 28 2 -3 -6 1 -7 9 -4 9 3 14 9 11 14 -2 4 21 8 53
10 31 1 65 3 75 3 9 1 17 4 17 7 0 4 12 7 28 7 15 0 51 3 81 7 37 5 51 4 47
-3 -4 -6 -2 -11 3 -11 6 0 11 4 11 9 0 8 15 8 83 2 5 -1 5 -6 1 -12 -4 -8 -1
-8 12 -1 11 5 28 8 38 6 11 -1 28 2 39 8 14 7 17 7 13 -1 -5 -8 4 -10 28 -6
28 3 36 1 36 -12 0 -13 3 -13 15 -3 8 7 12 17 8 23 -3 5 -2 7 3 4 6 -3 16 -2
24 3 10 6 23 1 42 -17 22 -21 28 -23 28 -11 0 9 -7 23 -15 32 -9 8 -11 17 -6
21 6 3 14 -3 20 -12 9 -16 12 -16 21 -3 9 13 11 13 20 0 9 -13 14 -8 12 11 -1
4 8 5 18 2 11 -3 20 -1 20 4 0 5 18 16 40 23 34 11 37 15 24 25 -14 10 -11 14
21 29 29 14 39 15 49 5 8 -9 8 -10 -1 -5 -8 4 -13 1 -13 -8 0 -9 7 -16 15 -16
8 0 18 -1 21 -2 4 -2 11 8 16 21 7 20 6 22 -5 12 -12 -9 -14 -5 -12 21 1 18 6
32 12 31 6 -1 14 4 17 13 3 8 2 12 -4 9 -5 -3 -7 4 -5 17 3 12 0 25 -6 29 -7
4 -6 11 4 20 11 10 12 20 5 38 -8 22 -7 23 9 10 14 -11 13 -6 -5 24 -12 21
-22 47 -22 58 0 10 -4 19 -8 19 -5 0 -13 17 -18 38 -8 30 -14 37 -32 35 -12
-2 -22 2 -22 8 0 5 5 7 10 4 6 -3 10 -1 10 5 0 6 -7 13 -16 17 -9 3 -27 17
-40 29 -24 25 -44 31 -44 14 0 -5 7 -10 15 -10 8 0 22 -11 31 -25 18 -27 13
-44 -8 -29 -15 11 -29 11 -81 0 -29 -5 -37 -11 -33 -22 3 -9 6 -20 6 -25 0 -6
8 -9 18 -8 20 4 67 -20 58 -28 -3 -4 0 -13 8 -22 26 -29 18 -86 -13 -95 -45
-14 -81 -15 -93 -3 -15 15 -97 42 -115 38 -7 -1 -13 2 -13 7 0 4 -17 9 -37 10
-21 2 -48 10 -60 18 -20 12 -22 12 -17 -1 8 -20 2 -19 -57 9 -28 14 -58 22
-66 19 -12 -5 -14 -3 -8 7 5 8 3 11 -6 8 -8 -3 -22 1 -31 9 -9 8 -28 16 -43
17 -14 0 -23 6 -21 12 6 16 -35 33 -99 40 -30 4 -55 11 -55 16 0 5 5 6 12 2 7
-4 8 -3 4 4 -11 18 -26 14 -26 -5 0 -15 -2 -16 -9 -4 -8 12 -11 9 -16 -12 -4
-15 -11 -27 -15 -27 -4 0 -13 -14 -19 -30 -6 -18 -21 -34 -37 -40 -21 -8 -24
-13 -15 -24 9 -10 9 -16 1 -21 -6 -4 -9 -13 -6 -21 3 -8 -1 -14 -10 -14 -9 0
-12 5 -8 12 4 7 3 8 -5 4 -6 -4 -10 -15 -9 -24 2 -9 -2 -16 -7 -15 -14 2 -10
-64 5 -82 7 -8 9 -15 5 -15 -3 0 3 -16 15 -35 12 -19 18 -35 15 -35 -4 0 -3
-6 3 -13 8 -10 5 -20 -12 -40 -13 -15 -27 -27 -31 -27 -4 0 -2 7 5 15 7 9 10
18 7 22 -4 3 0 11 9 18 14 9 14 13 2 23 -12 9 -20 7 -39 -11 -13 -12 -27 -21
-31 -20 -4 2 -5 -3 -2 -10 2 -7 -3 -13 -13 -13 -10 -1 -27 -4 -38 -8 -18 -7
-18 -7 -2 4 12 8 16 19 12 33 -6 21 -5 21 9 3 14 -18 15 -18 13 3 -1 11 -5 21
-10 21 -4 0 -5 5 -2 10 4 6 12 7 18 3 7 -4 5 2 -3 12 -8 10 -10 16 -3 12 7 -5
12 -1 11 10 0 10 5 33 11 51 8 27 7 33 -3 29 -9 -4 -12 2 -8 19 3 15 0 24 -9
24 -7 0 -9 3 -6 7 9 8 -52 53 -72 53 -14 0 -14 1 -1 10 13 8 12 10 -2 10 -10
0 -18 4 -18 10 0 5 -7 7 -15 4 -10 -4 -15 0 -15 11 0 9 -4 13 -10 10 -9 -6
-14 8 -11 28 0 4 -2 7 -7 7 -4 0 -20 11 -36 25 -16 13 -32 22 -37 20 -4 -3
-10 -1 -14 5 -3 5 -1 10 5 10 7 0 6 5 -2 14 -7 8 -16 12 -20 9 -5 -2 -8 1 -8
6 0 6 5 11 12 11 17 0 3 10 -21 15 -12 2 -19 0 -16 -6 4 -5 0 -9 -8 -9 -8 0
-18 10 -24 23 l-10 22 -7 -23 -8 -23 -18 21 c-10 12 -16 29 -13 38 4 14 3 15
-5 3 -9 -12 -14 -9 -29 17 -10 18 -24 32 -32 32 -11 0 -10 -4 4 -13z m182
-143 c-3 -3 -12 -4 -19 -1 -8 3 -5 6 6 6 11 1 17 -2 13 -5z m-391 -56 c4 -7 3
-8 -5 -4 -7 4 -15 -2 -20 -16 -6 -13 -10 -17 -10 -9 -1 11 -4 11 -16 1 -8 -7
-15 -8 -15 -4 0 5 12 17 28 26 33 21 29 20 38 6z m-421 -166 c-3 -3 -11 0 -18
7 -9 10 -8 11 6 5 10 -3 15 -9 12 -12z m195 -16 c0 -3 -4 -8 -10 -11 -5 -3
-10 -1 -10 4 0 6 5 11 10 11 6 0 10 -2 10 -4z m-185 -18 c5 4 5 2 1 -5 -8 -14
-36 -6 -36 9 0 7 5 6 13 -1 8 -6 18 -7 22 -3z m-455 -8 c0 -5 -5 -10 -11 -10
-5 0 -7 5 -4 10 3 6 8 10 11 10 2 0 4 -4 4 -10z m354 1 c16 -6 11 -10 -26 -19
-48 -12 -105 -49 -75 -49 9 0 13 5 10 10 -3 6 -1 7 6 3 6 -4 9 -12 6 -17 -4
-5 0 -9 7 -9 10 0 10 -2 0 -9 -8 -4 -13 -11 -13 -15 3 -23 -1 -28 -10 -13 -5
9 -8 21 -5 26 3 4 -6 6 -19 3 -14 -2 -25 -8 -25 -13 0 -5 8 -5 17 -2 15 6 16
5 3 -9 -13 -14 -16 -14 -23 -2 -5 8 -11 12 -15 10 -4 -3 -8 4 -8 14 0 10 3 17
7 14 9 -5 20 26 13 37 -3 5 -10 7 -15 4 -5 -4 -9 -1 -9 4 0 16 15 13 30 -4 6
-8 8 -20 4 -26 -4 -8 -3 -9 4 -5 7 4 9 18 6 33 -6 22 -4 25 9 20 9 -3 19 -2
23 4 3 6 12 8 20 5 7 -3 16 -1 19 4 7 12 32 12 59 1z m-38 -49 c0 -10 -5 -19
-12 -19 -6 0 -9 9 -6 19 2 10 7 18 11 18 4 0 7 -8 7 -18z m2269 -32 c0 -8 -8
-16 -17 -18 -12 -2 -16 3 -15 18 2 24 32 24 32 0z m-985 -40 c0 -5 -5 -10 -11
-10 -5 0 -7 5 -4 10 3 6 8 10 11 10 2 0 4 -4 4 -10z m362 -12 c-18 -18 -24
-20 -34 -10 -11 11 -10 12 3 7 9 -3 22 1 29 10 7 8 15 15 18 15 4 0 -4 -10
-16 -22z m35 2 c-1 -11 -7 -20 -14 -20 -11 0 -11 4 -1 20 7 11 14 20 15 20 1
0 1 -9 0 -20z m-297 0 c0 -5 -2 -10 -4 -10 -3 0 -8 5 -11 10 -3 6 -1 10 4 10
6 0 11 -4 11 -10z m60 4 c0 -15 -14 -32 -23 -27 -6 4 -8 0 -5 -9 5 -11 0 -14
-17 -14 -30 2 -41 12 -20 19 8 4 15 1 15 -5 0 -7 6 -3 14 7 8 11 13 22 11 26
-2 3 2 6 10 6 8 0 15 -1 15 -3z m80 2 c0 -2 -7 -7 -16 -10 -8 -3 -12 -2 -9 4
6 10 25 14 25 6z m32 -14 c-4 -12 -1 -14 14 -8 15 6 16 5 7 -5 -10 -10 -15 -9
-28 1 -19 16 -19 27 -1 27 8 0 12 -6 8 -15z m-398 -6 c-3 -8 -12 -17 -20 -20
-11 -4 -12 -2 -1 14 14 23 29 27 21 6z m201 4 c3 -5 1 -10 -4 -10 -6 0 -11 5
-11 10 0 6 2 10 4 10 3 0 8 -4 11 -10z m100 0 c-3 -5 -2 -10 4 -10 5 0 12 6
14 13 4 9 6 9 6 -1 1 -14 -26 -28 -35 -19 -6 6 4 27 12 27 3 0 2 -4 -1 -10z
m-590 -21 c-8 -12 -42 -12 -50 1 -4 7 3 8 21 4 21 -5 25 -4 19 6 -5 9 -4 11 4
6 6 -4 9 -12 6 -17z m387 -1 c-6 -6 -15 -8 -19 -4 -4 4 -1 11 7 16 19 12 27 3
12 -12z m-481 -16 c-6 -2 -9 -8 -6 -12 3 -5 0 -12 -6 -16 -8 -5 -9 -3 -4 6 6
10 4 12 -8 7 -11 -4 -14 -2 -10 8 3 8 10 12 16 8 7 -4 8 0 3 12 -6 16 -4 16
10 4 10 -8 12 -15 5 -17z m192 13 c-3 -9 -8 -14 -10 -11 -3 3 -2 9 2 15 9 16
15 13 8 -4z m-258 -5 c4 -6 -6 -10 -22 -10 -22 0 -25 2 -13 10 19 12 27 12 35
0z m132 -16 c-3 -3 -12 -4 -19 -1 -8 3 -5 6 6 6 11 1 17 -2 13 -5z m47 -10 c3
-8 2 -12 -4 -9 -6 3 -10 10 -10 16 0 14 7 11 14 -7z m-49 -114 c13 -6 15 -9 5
-9 -8 0 -22 4 -30 9 -18 12 -2 12 25 0z m75 0 c0 -5 -5 -10 -11 -10 -5 0 -7 5
-4 10 3 6 8 10 11 10 2 0 4 -4 4 -10z m134 -45 c-9 -14 -19 -24 -21 -21 -8 7
9 56 18 50 5 -3 9 1 10 8 0 9 2 10 5 1 3 -6 -2 -23 -12 -38z m-1269 25 c-3 -5
-10 -10 -16 -10 -5 0 -9 5 -9 10 0 6 7 10 16 10 8 0 12 -4 9 -10z m35 0 c0 -5
-2 -10 -4 -10 -3 0 -8 5 -11 10 -3 6 -1 10 4 10 6 0 11 -4 11 -10z m1084 -12
c-7 -11 -35 -10 -53 1 -9 6 -2 8 22 8 20 -1 33 -5 31 -9z m70 3 c3 -5 -1 -12
-9 -15 -8 -3 -18 -7 -22 -8 -3 -2 -7 5 -9 15 -2 18 30 25 40 8z m-304 -5 c0
-2 -8 -10 -17 -17 -16 -13 -17 -12 -4 4 13 16 21 21 21 13z m170 -10 c0 -3 -4
-8 -10 -11 -5 -3 -10 -1 -10 4 0 6 5 11 10 11 6 0 10 -2 10 -4z"/>
<path d="M3655 2779 c-4 -5 -4 -13 -1 -16 3 -4 6 0 6 8 0 11 2 11 10 -1 6 -9
10 -10 10 -3 0 17 -17 25 -25 12z"/>
<path d="M3451 2754 c0 -11 3 -14 6 -6 3 7 2 16 -1 19 -3 4 -6 -2 -5 -13z"/>
<path d="M3491 2754 c0 -11 3 -14 6 -6 3 7 2 16 -1 19 -3 4 -6 -2 -5 -13z"/>
<path d="M3511 2754 c0 -11 3 -14 6 -6 3 7 2 16 -1 19 -3 4 -6 -2 -5 -13z"/>
<path d="M4190 2740 c0 -5 5 -10 11 -10 5 0 7 5 4 10 -3 6 -8 10 -11 10 -2 0
-4 -4 -4 -10z"/>
<path d="M3466 2717 c3 -10 9 -15 12 -12 3 3 0 11 -7 18 -10 9 -11 8 -5 -6z"/>
<path d="M3503 2709 c-2 -17 1 -18 13 -9 17 15 18 30 1 30 -7 0 -13 -9 -14
-21z"/>
<path d="M4163 2713 c-4 -10 -14 -24 -22 -31 -13 -10 -14 -12 -1 -10 8 2 21 9
28 16 7 6 23 12 35 12 17 0 19 2 7 10 -9 6 -20 5 -29 -3 -12 -10 -14 -9 -8 6
3 9 4 17 1 17 -2 0 -8 -8 -11 -17z"/>
<path d="M1800 2716 c0 -2 8 -10 18 -17 15 -13 16 -12 3 4 -13 16 -21 21 -21
13z"/>
<path d="M4125 2709 c-4 -6 -4 -13 -1 -16 3 -4 6 -1 6 6 0 7 5 9 10 6 6 -3 10
-1 10 4 0 14 -17 14 -25 0z"/>
<path d="M3396 2687 c3 -10 9 -15 12 -12 3 3 0 11 -7 18 -10 9 -11 8 -5 -6z"/>
<path d="M1835 2679 c-4 -6 -5 -12 -2 -15 2 -3 7 2 10 11 7 17 1 20 -8 4z"/>
<path d="M3427 2674 c-9 -10 2 -24 18 -24 9 0 12 6 9 15 -6 16 -17 19 -27 9z"/>
<path d="M3340 2660 c0 -5 5 -10 10 -10 6 0 10 5 10 10 0 6 -4 10 -10 10 -5 0
-10 -4 -10 -10z"/>
<path d="M4147 2653 c-10 -9 -9 -23 1 -23 5 0 9 7 9 15 0 17 -1 18 -10 8z"/>
<path d="M3260 2601 c0 -7 -5 -9 -12 -5 -7 5 -8 3 -3 -5 5 -9 10 -10 18 -2 6
6 8 14 4 18 -4 3 -7 1 -7 -6z"/>
<path d="M3190 2572 c0 -4 10 -9 22 -9 18 -2 20 0 8 7 -18 12 -30 13 -30 2z"/>
<path d="M3037 2515 c3 -8 9 -12 14 -9 12 7 11 11 -5 17 -10 4 -13 1 -9 -8z"/>
<path d="M1860 2510 c-9 -6 -10 -10 -3 -10 6 0 15 5 18 10 8 12 4 12 -15 0z"/>
<path d="M3065 2500 c-3 -6 1 -7 9 -4 18 7 21 14 7 14 -6 0 -13 -4 -16 -10z"/>
<path d="M1864 2423 c0 -10 -6 -18 -14 -18 -8 0 -15 -9 -16 -21 -1 -11 5 -21
11 -21 7 0 11 6 8 14 -3 7 2 16 11 19 17 7 22 29 7 38 -5 3 -8 -2 -7 -11z"/>
<path d="M1877 2353 c-12 -19 3 -42 25 -38 11 3 23 7 27 11 3 4 -2 4 -12 1
-13 -5 -20 0 -26 15 -4 13 -10 17 -14 11z"/>
<path d="M5112 2346 c7 -8 15 -12 17 -11 5 6 -10 25 -20 25 -5 0 -4 -6 3 -14z"/>
<path d="M2036 2338 c3 -4 15 -13 27 -18 20 -10 20 -10 5 3 -10 8 -16 16 -13
19 3 2 -2 5 -10 5 -8 0 -12 -4 -9 -9z"/>
<path d="M2094 2318 c0 -10 3 -18 7 -18 4 0 9 8 11 18 3 10 0 19 -6 19 -7 0
-12 -9 -12 -19z"/>
<path d="M1814 2278 c8 -11 12 -27 9 -34 -4 -10 0 -12 11 -8 18 7 21 20 6 29
-6 4 -8 10 -5 15 3 4 -4 10 -15 13 -18 5 -19 3 -6 -15z"/>
<path d="M1982 2284 c2 -10 12 -20 23 -21 16 -1 16 -1 2 3 -9 3 -15 9 -12 14
3 5 0 12 -6 15 -7 5 -10 0 -7 -11z"/>
<path d="M1850 2272 c0 -5 7 -13 16 -16 10 -4 14 -1 12 6 -5 15 -28 23 -28 10z"/>
<path d="M2183 2241 c0 -11 5 -18 9 -15 4 3 5 11 1 19 -7 21 -12 19 -10 -4z"/>
<path d="M5073 2195 c-7 -8 -14 -33 -15 -57 -3 -38 -1 -43 21 -46 15 -3 21 0
16 8 -4 6 -14 9 -22 5 -13 -4 -13 -3 -4 8 6 8 10 25 10 38 -1 13 2 32 6 42 9
20 4 21 -12 2z"/>
<path d="M2280 2187 c0 -9 40 -35 44 -28 3 4 -6 13 -19 19 -14 7 -25 10 -25 9z"/>
<path d="M4761 2141 c-9 -6 -7 -10 8 -14 12 -3 21 -1 21 3 0 14 -15 19 -29 11z"/>
<path d="M5091 2134 c0 -11 3 -14 6 -6 3 7 2 16 -1 19 -3 4 -6 -2 -5 -13z"/>
<path d="M4741 2093 c7 -12 15 -20 18 -17 3 2 -3 12 -13 22 -17 16 -18 16 -5
-5z"/>
<path d="M4776 2102 c-2 -4 4 -8 14 -8 10 0 16 4 14 8 -3 4 -9 8 -14 8 -5 0
-11 -4 -14 -8z"/>
<path d="M5048 2073 c7 -3 16 -2 19 1 4 3 -2 6 -13 5 -11 0 -14 -3 -6 -6z"/>
<path d="M3030 2040 c-9 -6 -10 -10 -3 -10 6 0 15 5 18 10 8 12 4 12 -15 0z"/>
<path d="M3550 1993 c0 -12 28 -38 34 -32 2 2 -5 13 -15 23 -11 11 -19 15 -19
9z"/>
<path d="M5720 1897 c0 -8 7 -14 15 -14 11 0 12 4 4 14 -6 7 -13 13 -15 13 -2
0 -4 -6 -4 -13z"/>
<path d="M2387 1879 c-9 -12 -17 -16 -20 -9 -4 6 -5 6 -3 -1 1 -7 11 -13 22
-14 14 -1 19 5 19 22 0 28 0 28 -18 2z"/>
<path d="M5723 1863 c-15 -5 -18 -33 -4 -33 5 0 11 9 14 20 3 11 4 20 4 19 -1
0 -8 -3 -14 -6z"/>
<path d="M2415 1840 c-3 -6 1 -7 9 -4 18 7 21 14 7 14 -6 0 -13 -4 -16 -10z"/>
<path d="M5710 1809 c0 -5 5 -7 10 -4 6 3 10 8 10 11 0 2 -4 4 -10 4 -5 0 -10
-5 -10 -11z"/>
<path d="M2410 1800 c0 -6 7 -10 15 -10 8 0 15 2 15 4 0 2 -7 6 -15 10 -8 3
-15 1 -15 -4z"/>
<path d="M2395 1719 c-20 -7 -20 -8 1 -8 11 -1 25 -6 32 -13 7 -7 12 -9 12 -4
0 18 -26 33 -45 25z"/>
<path d="M5690 1709 c0 -5 5 -7 10 -4 6 3 10 8 10 11 0 2 -4 4 -10 4 -5 0 -10
-5 -10 -11z"/>
<path d="M5678 1655 c-4 -33 -3 -34 14 -18 20 18 24 28 6 17 -8 -5 -9 0 -6 14
4 12 3 22 -2 22 -4 0 -10 -16 -12 -35z"/>
<path d="M2382 1619 c-10 -16 -11 -24 -2 -33 9 -8 11 -6 8 9 -2 12 2 19 9 18
7 -2 10 4 7 12 -8 19 -7 19 -22 -6z"/>
<path d="M5150 1580 c-9 -6 -10 -10 -3 -10 6 0 15 5 18 10 8 12 4 12 -15 0z"/>
<path d="M5656 1573 c-4 -9 -2 -21 4 -27 7 -7 10 -2 10 17 0 31 -5 34 -14 10z"/>
<path d="M5135 1517 c-24 -27 -26 -37 -9 -30 12 4 15 3 10 -5 -4 -7 -2 -12 4
-12 7 0 9 8 5 22 -6 17 -4 20 9 15 10 -4 16 -1 16 8 0 18 -21 19 -35 2z"/>
<path d="M5645 1519 c-4 -6 -4 -13 -1 -16 3 -4 6 -1 6 6 0 7 5 9 12 5 7 -4 8
-3 4 4 -9 15 -13 15 -21 1z"/>
<path d="M2430 1505 c-14 -8 -20 -14 -14 -15 5 0 19 7 30 15 24 18 16 19 -16
0z"/>
<path d="M2373 1493 c-7 -2 -13 -9 -13 -15 0 -7 5 -6 14 1 10 9 15 8 20 -4 6
-17 26 -21 26 -4 0 5 -4 7 -10 4 -5 -3 -10 1 -10 9 0 16 -6 18 -27 9z"/>
<path d="M2380 1450 c0 -5 5 -10 11 -10 5 0 7 5 4 10 -3 6 -8 10 -11 10 -2 0
-4 -4 -4 -10z"/>
<path d="M5028 1405 c-7 -17 -19 -25 -36 -25 -17 0 -23 -4 -19 -15 4 -8 2 -17
-3 -20 -6 -4 -10 2 -10 12 0 13 -4 10 -15 -11 -8 -15 -13 -32 -10 -36 6 -10
-14 -18 -42 -15 -12 1 -20 -2 -17 -7 3 -4 1 -8 -4 -8 -6 0 -13 -12 -16 -26 -9
-34 -33 -57 -52 -50 -8 3 -13 2 -10 -3 3 -5 -2 -12 -11 -15 -12 -5 -14 -9 -5
-18 17 -17 15 -27 -6 -23 -11 2 -19 -3 -19 -10 0 -8 4 -12 9 -9 4 3 5 -2 2
-10 -3 -9 -10 -16 -15 -16 -5 0 -9 -4 -9 -9 0 -5 14 -9 30 -9 20 1 30 6 30 16
0 9 3 12 7 9 3 -4 14 4 23 19 l17 26 7 -26 c3 -14 11 -26 16 -26 6 0 10 -13
10 -29 0 -16 6 -33 13 -39 9 -8 12 4 14 56 1 47 6 70 17 78 9 6 13 13 10 16
-3 4 2 5 12 5 9 -1 19 4 22 12 3 10 0 11 -9 5 -12 -7 -12 -5 0 9 7 9 23 17 34
17 11 0 17 3 14 6 -4 4 2 14 12 23 10 9 17 24 15 34 -2 15 8 22 29 18 5 -1 6
3 3 8 -4 5 -2 12 4 16 6 4 8 11 5 16 -4 5 -1 9 5 9 6 0 8 10 4 28 -8 33 -25
55 -19 23 2 -12 0 -19 -5 -16 -4 3 -11 -1 -14 -7 -3 -7 -3 -1 -1 15 5 34 -2
35 -17 2z m23 -52 c13 -15 12 -15 -8 -4 -16 8 -23 8 -23 1 0 -6 -5 -8 -11 -4
-8 4 -7 9 2 15 20 12 25 11 40 -8z m-204 -185 c-3 -7 -5 -2 -5 12 0 14 2 19 5
13 2 -7 2 -19 0 -25z m-37 -28 c0 -11 -7 -20 -15 -20 -13 0 -13 3 -3 20 7 11
14 20 15 20 2 0 3 -9 3 -20z"/>
<path d="M5612 1403 c1 -16 -1 -34 -6 -41 -4 -7 -2 -12 3 -12 6 0 11 6 12 13
0 6 2 22 3 35 2 13 -1 25 -6 28 -5 3 -7 -7 -6 -23z"/>
<path d="M2505 1380 c-4 -6 -11 -8 -16 -5 -15 10 -10 -5 8 -23 15 -15 16 -15
11 -1 -4 9 -1 22 5 28 6 6 8 11 5 11 -4 0 -10 -5 -13 -10z"/>
<path d="M2545 1359 c-4 -6 -5 -12 -2 -15 2 -3 7 2 10 11 7 17 1 20 -8 4z"/>
<path d="M2735 1349 c-4 -6 -4 -13 -1 -16 3 -4 6 -1 6 6 0 7 5 9 12 5 7 -4 8
-3 4 4 -9 15 -13 15 -21 1z"/>
<path d="M2696 1331 c-3 -5 4 -11 15 -14 13 -4 18 -10 13 -18 -5 -8 -3 -10 5
-5 9 6 8 13 -5 27 -20 22 -21 22 -28 10z"/>
<path d="M5255 1330 c-3 -5 -1 -10 4 -10 6 0 11 5 11 10 0 6 -2 10 -4 10 -3 0
-8 -4 -11 -10z"/>
<path d="M5605 1320 c-3 -5 -1 -10 4 -10 6 0 11 5 11 10 0 6 -2 10 -4 10 -3 0
-8 -4 -11 -10z"/>
<path d="M4147 1309 c7 -7 15 -10 18 -7 3 3 -2 9 -12 12 -14 6 -15 5 -6 -5z"/>
<path d="M2817 1296 c-3 -8 -2 -18 3 -21 13 -8 24 15 12 27 -6 6 -11 4 -15 -6z"/>
<path d="M2656 1287 c3 -10 9 -15 12 -12 3 3 0 11 -7 18 -10 9 -11 8 -5 -6z"/>
<path d="M5602 1266 c0 -20 3 -36 7 -36 9 0 7 57 -1 66 -3 3 -6 -11 -6 -30z"/>
<path d="M2785 1280 c-3 -5 -1 -10 4 -10 6 0 11 5 11 10 0 6 -2 10 -4 10 -3 0
-8 -4 -11 -10z"/>
<path d="M2915 1239 c-4 -6 -5 -12 -2 -15 2 -3 7 2 10 11 7 17 1 20 -8 4z"/>
<path d="M3015 1200 c-16 -7 -17 -9 -3 -9 9 -1 20 4 23 9 7 11 7 11 -20 0z"/>
<path d="M3710 1205 c0 -5 5 -17 10 -25 5 -8 10 -10 10 -5 0 6 -5 17 -10 25
-5 8 -10 11 -10 5z"/>
<path d="M4295 1200 c-16 -7 -17 -9 -3 -9 9 -1 20 4 23 9 7 11 7 11 -20 0z"/>
<path d="M5615 1190 c9 -31 11 -33 25 -28 7 2 3 13 -11 28 l-21 25 7 -25z"/>
<path d="M3764 1189 c-4 -7 -3 -9 4 -5 5 3 13 0 15 -6 4 -9 6 -10 6 -1 1 17
-16 25 -25 12z"/>
<path d="M3058 1183 c7 -3 16 -2 19 1 4 3 -2 6 -13 5 -11 0 -14 -3 -6 -6z"/>
<path d="M3046 1154 c-8 -20 -8 -24 2 -22 4 0 15 -2 25 -7 27 -11 27 -3 2 22
-20 18 -24 20 -29 7z"/>
<path d="M3708 1143 c7 -3 16 -2 19 1 4 3 -2 6 -13 5 -11 0 -14 -3 -6 -6z"/>
<path d="M4475 1131 c-3 -6 -10 -9 -15 -6 -5 3 -7 -4 -5 -16 6 -30 15 -37 15
-11 0 11 6 22 13 25 6 2 9 7 6 11 -4 4 -10 2 -14 -3z"/>
<path d="M3355 1120 c-3 -6 1 -7 9 -4 18 7 21 14 7 14 -6 0 -13 -4 -16 -10z"/>
<path d="M3577 1110 c3 -11 9 -17 15 -14 5 3 4 12 -3 20 -16 19 -18 18 -12 -6z"/>
<path d="M3246 1107 c3 -10 9 -15 12 -12 3 3 0 11 -7 18 -10 9 -11 8 -5 -6z"/>
<path d="M3313 1105 c0 -8 4 -12 9 -9 5 3 6 10 3 15 -9 13 -12 11 -12 -6z"/>
<path d="M3175 1100 c3 -5 8 -10 11 -10 2 0 4 5 4 10 0 6 -5 10 -11 10 -5 0
-7 -4 -4 -10z"/>
<path d="M3281 1093 c7 -12 15 -20 18 -17 3 2 -3 12 -13 22 -17 16 -18 16 -5
-5z"/>
<path d="M4575 1089 c-4 -6 -5 -12 -2 -15 2 -3 7 2 10 11 7 17 1 20 -8 4z"/>
<path d="M3260 1070 c0 -5 5 -10 10 -10 6 0 10 5 10 10 0 6 -4 10 -10 10 -5 0
-10 -4 -10 -10z"/>
<path d="M6975 960 c-3 -5 -1 -10 4 -10 6 0 11 5 11 10 0 6 -2 10 -4 10 -3 0
-8 -4 -11 -10z"/>
<path d="M3147 740 c13 -13 46 -16 49 -5 2 6 -10 11 -27 11 -17 1 -27 -2 -22
-6z"/>
<path d="M3173 692 c1 -21 6 -28 18 -24 21 5 18 31 -4 43 -14 8 -16 5 -14 -19z"/>
<path d="M3341 684 c0 -11 3 -14 6 -6 3 7 2 16 -1 19 -3 4 -6 -2 -5 -13z"/>
<path d="M3140 680 c0 -5 5 -10 10 -10 6 0 10 5 10 10 0 6 -4 10 -10 10 -5 0
-10 -4 -10 -10z"/>
<path d="M3472 668 c-14 -14 -16 -28 -3 -28 5 0 11 9 14 20 6 23 5 24 -11 8z"/>
<path d="M3774 655 c0 -19 3 -22 13 -13 10 8 10 14 2 24 -15 18 -15 18 -15
-11z"/>
<path d="M3176 641 c-17 -19 -17 -19 1 -17 10 2 19 10 21 19 4 22 -1 21 -22
-2z"/>
<path d="M370 610 c-13 -8 -12 -10 3 -10 9 0 17 5 17 10 0 12 -1 12 -20 0z"/>
<path d="M3253 600 c-1 -11 2 -20 7 -20 4 0 7 7 6 15 -3 23 -12 26 -13 5z"/>
<path d="M183 590 c1 -11 5 -20 9 -20 4 0 8 9 8 20 0 11 -4 20 -9 20 -6 0 -9
-9 -8 -20z"/>
<path d="M610 591 c0 -11 4 -22 9 -25 5 -4 8 -14 7 -23 -2 -10 7 -25 18 -35
12 -9 16 -17 9 -18 -6 0 -10 -9 -8 -20 2 -11 0 -20 -6 -20 -5 0 -9 -5 -9 -11
0 -8 5 -8 15 1 8 7 15 20 15 29 0 13 2 14 9 1 6 -8 7 -18 4 -24 -3 -5 -1 -6 5
-2 7 4 12 15 12 24 0 15 2 15 11 2 8 -12 9 -10 4 8 -5 16 -2 22 9 22 9 0 16 5
16 11 0 5 -5 7 -10 4 -6 -4 -19 -1 -28 7 -15 11 -15 11 -5 -3 7 -9 10 -19 6
-22 -11 -12 -23 -8 -23 8 0 8 -6 14 -12 13 -7 -2 -13 4 -13 13 0 9 -6 23 -14
32 -7 9 -10 21 -7 26 4 5 2 12 -4 16 -5 3 -10 -3 -10 -14z"/>
<path d="M135 589 c6 -9 2 -11 -13 -7 -14 4 -19 2 -15 -7 5 -15 33 -28 41 -20
3 3 0 5 -7 5 -7 0 -9 5 -6 11 4 6 13 8 21 5 22 -8 17 2 -7 15 -17 9 -20 8 -14
-2z"/>
<path d="M690 591 c0 -5 14 -9 30 -9 35 1 34 7 -4 14 -14 2 -26 0 -26 -5z"/>
<path d="M47 579 c7 -9 9 -20 5 -24 -4 -5 -1 -5 6 -1 7 5 12 1 12 -10 0 -22 9
-13 15 15 2 13 0 19 -6 15 -5 -3 -18 0 -27 8 -15 11 -15 11 -5 -3z"/>
<path d="M580 581 c0 -5 7 -15 17 -22 15 -13 15 -12 4 9 -12 23 -21 28 -21 13z"/>
<path d="M372 567 c-8 -9 -8 -17 0 -27 8 -13 9 -12 5 1 -3 9 0 22 6 28 6 6 8
11 5 11 -3 0 -10 -6 -16 -13z"/>
<path d="M735 570 l-30 -8 27 -1 c15 0 30 4 33 9 3 6 5 9 3 9 -2 -1 -16 -5
-33 -9z"/>
<path d="M787 574 c-11 -11 4 -33 19 -27 13 5 20 -14 15 -40 -1 -5 3 -6 9 -2
6 4 8 16 4 27 -4 15 -2 19 7 15 8 -2 13 -9 12 -14 -3 -16 40 -9 45 7 5 13 3
13 -12 1 -9 -8 -16 -10 -15 -5 4 22 -2 32 -18 30 -10 -2 -21 2 -25 8 -5 7 -8
7 -8 -3 0 -10 -3 -11 -13 -2 -8 6 -16 8 -20 5z"/>
<path d="M465 560 c-3 -6 1 -7 9 -4 18 7 21 14 7 14 -6 0 -13 -4 -16 -10z"/>
<path d="M507 559 c7 -7 15 -10 18 -7 3 3 -2 9 -12 12 -14 6 -15 5 -6 -5z"/>
<path d="M3020 560 c0 -5 7 -7 15 -4 9 4 15 0 15 -9 0 -8 7 -17 15 -21 8 -3
15 -1 15 4 0 6 -4 10 -10 10 -5 0 -10 4 -10 8 0 4 8 8 19 8 12 0 17 -5 13 -15
-4 -9 -1 -12 7 -7 7 4 10 13 8 19 -4 13 -87 20 -87 7z"/>
<path d="M3120 551 c0 -6 4 -12 8 -15 5 -3 9 1 9 9 0 8 -4 15 -9 15 -4 0 -8
-4 -8 -9z"/>
<path d="M3186 552 c-3 -5 1 -9 9 -9 8 0 12 4 9 9 -3 4 -7 8 -9 8 -2 0 -6 -4
-9 -8z"/>
<path d="M112 534 c10 -10 20 -16 22 -13 3 3 -5 11 -17 18 -21 13 -21 12 -5
-5z"/>
<path d="M497 539 c7 -7 15 -10 18 -7 3 3 -2 9 -12 12 -14 6 -15 5 -6 -5z"/>
<path d="M707 539 c7 -7 15 -10 18 -7 3 3 -2 9 -12 12 -14 6 -15 5 -6 -5z"/>
<path d="M740 540 c0 -5 4 -10 9 -10 6 0 13 5 16 10 3 6 -1 10 -9 10 -9 0 -16
-4 -16 -10z"/>
<path d="M911 534 c0 -11 3 -14 6 -6 3 7 2 16 -1 19 -3 4 -6 -2 -5 -13z"/>
<path d="M930 525 c0 -14 4 -25 9 -25 4 0 6 11 3 25 -2 14 -6 25 -8 25 -2 0
-4 -11 -4 -25z"/>
<path d="M253 515 c0 -8 4 -12 9 -9 5 3 6 10 3 15 -9 13 -12 11 -12 -6z"/>
<path d="M2844 521 c4 -5 -3 -16 -14 -24 -21 -14 -21 -14 -1 -20 11 -3 20 -2
19 2 -2 19 4 22 20 10 15 -13 16 -12 3 4 -10 12 -10 17 -1 17 6 0 14 -9 17
-20 6 -22 18 -26 28 -10 4 7 11 8 18 1 17 -13 38 12 26 30 -7 11 -9 11 -9 -3
0 -10 -5 -18 -11 -18 -6 0 -8 8 -5 18 4 12 0 10 -14 -7 l-20 -23 0 24 c0 19
-6 24 -31 26 -17 1 -28 -2 -25 -7z"/>
<path d="M2970 525 c0 -5 5 -17 10 -25 5 -8 10 -10 10 -5 0 6 -5 17 -10 25 -5
8 -10 11 -10 5z"/>
<path d="M30 510 c-12 -8 -10 -10 8 -10 13 0 20 4 17 10 -7 12 -6 12 -25 0z"/>
<path d="M191 504 c0 -11 3 -14 6 -6 3 7 2 16 -1 19 -3 4 -6 -2 -5 -13z"/>
<path d="M760 496 c19 -21 25 -23 36 -11 20 20 17 27 -6 15 -16 -9 -20 -8 -20
5 0 8 -8 15 -17 15 -14 0 -13 -4 7 -24z"/>
<path d="M3200 516 c0 -2 7 -9 15 -16 9 -7 15 -8 15 -2 0 5 -7 12 -15 16 -8 3
-15 4 -15 2z"/>
<path d="M70 501 c0 -6 4 -13 10 -16 6 -3 7 1 4 9 -7 18 -14 21 -14 7z"/>
<path d="M95 500 c3 -5 8 -10 11 -10 2 0 4 5 4 10 0 6 -5 10 -11 10 -5 0 -7
-4 -4 -10z"/>
<path d="M3096 494 c-3 -7 3 -10 15 -7 26 7 32 19 9 19 -11 0 -22 -6 -24 -12z"/>
<path d="M219 483 c-13 -16 -12 -17 4 -4 9 7 17 15 17 17 0 8 -8 3 -21 -13z"/>
<path d="M553 492 c16 -7 16 -8 -2 -24 -14 -12 -22 -13 -31 -5 -8 8 -8 5 1
-10 12 -20 14 -20 25 -5 7 9 17 18 23 18 22 3 23 4 11 19 -7 8 -20 15 -29 14
-14 0 -13 -1 2 -7z"/>
<path d="M621 492 c-1 -8 -6 -10 -13 -6 -10 5 -10 4 -1 -6 15 -16 28 -8 20 12
-4 11 -6 11 -6 0z"/>
<path d="M10 478 c0 -14 16 -16 33 -3 17 12 16 13 -7 11 -15 0 -26 -4 -26 -8z"/>
<path d="M725 480 c-3 -6 1 -7 9 -4 18 7 21 14 7 14 -6 0 -13 -4 -16 -10z"/>
<path d="M3125 470 c4 -6 11 -8 16 -5 14 9 11 15 -7 15 -8 0 -12 -5 -9 -10z"/>
<path d="M765 463 c3 -3 -2 -14 -11 -24 -15 -17 -15 -18 5 -16 19 1 25 29 8
42 -4 3 -5 2 -2 -2z"/>
<path d="M2867 463 c-4 -3 -7 -20 -7 -37 -1 -29 -1 -30 -15 -12 -11 15 -15 16
-16 5 -1 -26 -6 -54 -13 -74 -6 -16 -4 -15 6 3 8 12 18 19 22 15 5 -4 4 2 -3
14 -10 19 -9 22 9 20 11 -1 20 -5 20 -9 0 -4 4 -8 9 -8 5 0 7 12 4 28 -3 15
-5 35 -5 45 1 19 -1 20 -11 10z"/>
<path d="M3081 453 c11 -19 15 -20 22 -7 5 9 6 18 3 21 -3 4 -6 1 -6 -7 0 -10
-3 -10 -17 1 -15 13 -15 12 -2 -8z"/>
<path d="M725 450 c-3 -5 -2 -10 4 -10 5 0 13 5 16 10 3 6 2 10 -4 10 -5 0
-13 -4 -16 -10z"/>
<path d="M4290 429 c-61 -19 -125 -32 -180 -35 -47 -3 -89 -5 -95 -6 -5 0 -47
9 -92 21 -45 11 -104 21 -132 21 -43 0 -53 -3 -59 -21 -12 -32 -4 -134 19
-228 21 -90 32 -111 58 -111 21 0 151 62 188 90 22 16 47 21 111 24 51 2 82
-1 82 -7 0 -6 3 -8 6 -5 3 4 39 -9 79 -29 41 -19 92 -37 114 -40 40 -5 41 -4
57 33 21 48 31 256 15 297 -14 36 -47 35 -171 -4z"/>
<path d="M688 430 c-10 -9 -18 -20 -18 -24 0 -4 7 0 16 9 13 13 19 13 33 3 15
-12 15 -11 1 7 -8 11 -14 21 -15 21 0 1 -8 -6 -17 -16z"/>
<path d="M3035 439 c-4 -6 -5 -12 -2 -15 2 -3 7 2 10 11 7 17 1 20 -8 4z"/>
<path d="M796 424 c-4 -9 -4 -19 -1 -22 3 -3 5 0 5 6 0 7 5 11 11 10 6 -2 14
3 16 10 3 6 -2 12 -10 12 -8 0 -18 -7 -21 -16z"/>
<path d="M2720 431 c0 -6 5 -11 12 -11 6 0 -1 -11 -16 -24 l-28 -23 23 -21
c21 -20 46 -21 34 -1 -4 5 -2 9 4 9 5 0 13 -4 16 -10 3 -5 12 -10 18 -10 8 0
8 3 -1 9 -21 13 -19 21 8 37 21 13 22 14 3 9 -14 -4 -26 0 -35 13 -17 24 -38
36 -38 23z m47 -55 c0 -7 -7 -13 -16 -12 -9 1 -15 -5 -13 -12 1 -8 -2 -11 -7
-8 -7 5 -8 38 -2 41 13 7 38 0 38 -9z"/>
<path d="M5951 393 c1 -26 4 -39 6 -28 3 11 10 25 15 32 7 9 5 17 -6 28 -15
15 -16 12 -15 -32z"/>
<path d="M832 409 c-10 -16 -10 -19 4 -19 9 0 12 5 8 12 -4 7 -3 8 4 4 7 -4
12 -13 12 -21 0 -8 5 -17 12 -21 6 -4 8 -3 4 4 -3 5 0 13 6 15 10 4 10 6 1 6
-7 1 -13 5 -13 10 0 5 10 7 22 3 13 -3 19 -1 15 6 -4 5 -15 9 -25 7 -9 -1 -22
1 -27 6 -7 5 -16 0 -23 -12z"/>
<path d="M2895 420 c4 -6 11 -8 16 -5 14 9 11 15 -7 15 -8 0 -12 -5 -9 -10z"/>
<path d="M621 404 c0 -11 3 -14 6 -6 3 7 2 16 -1 19 -3 4 -6 -2 -5 -13z"/>
<path d="M3056 408 c3 -5 10 -6 15 -3 13 9 11 12 -6 12 -8 0 -12 -4 -9 -9z"/>
<path d="M690 401 c0 -11 25 -21 51 -21 12 0 17 4 14 11 -4 6 -9 8 -12 5 -3
-2 -16 -1 -29 4 -13 5 -24 6 -24 1z"/>
<path d="M2596 402 c-2 -4 2 -15 9 -25 18 -24 69 -14 56 12 -9 17 -56 27 -65
13z m48 -23 c-6 -11 -24 -2 -24 11 0 5 7 7 15 4 8 -4 12 -10 9 -15z"/>
<path d="M6045 401 c-3 -5 -2 -12 3 -15 5 -3 9 1 9 9 0 17 -3 19 -12 6z"/>
<path d="M634 375 c-6 -16 13 -38 36 -43 8 -1 4 6 -9 16 -13 11 -21 24 -17 31
4 6 5 11 1 11 -3 0 -8 -7 -11 -15z"/>
<path d="M2906 375 c4 -8 11 -15 16 -15 6 0 5 6 -2 15 -7 8 -14 15 -16 15 -2
0 -1 -7 2 -15z"/>
<path d="M566 371 c-12 -5 -15 -10 -9 -14 6 -4 16 0 23 8 14 17 13 17 -14 6z"/>
<path d="M675 370 c-3 -5 -2 -10 4 -10 5 0 13 5 16 10 3 6 2 10 -4 10 -5 0
-13 -4 -16 -10z"/>
<path d="M804 373 c4 -7 -3 -13 -16 -16 -21 -5 -21 -5 2 -5 42 0 48 -2 46 -14
-1 -14 5 -18 30 -18 9 0 12 5 8 12 -4 7 -3 8 5 4 9 -6 9 -11 -1 -24 -10 -12
-10 -14 0 -8 7 4 12 1 12 -8 0 -22 23 -20 38 4 7 12 8 20 2 20 -5 0 -10 -4
-10 -10 0 -5 -4 -10 -10 -10 -5 0 -10 11 -10 25 0 29 -26 34 -45 8 -11 -15
-12 -14 -10 11 2 19 0 26 -10 23 -7 -3 -18 0 -25 6 -10 9 -11 9 -6 0z"/>
<path d="M2874 358 c3 -15 26 -23 26 -8 0 6 -4 9 -9 6 -5 -4 -12 -1 -14 4 -3
6 -4 5 -3 -2z"/>
<path d="M2975 350 c3 -5 8 -10 11 -10 2 0 4 5 4 10 0 6 -5 10 -11 10 -5 0 -7
-4 -4 -10z"/>
<path d="M5710 333 c0 -17 5 -35 10 -38 13 -8 13 35 0 55 -7 11 -10 7 -10 -17z"/>
<path d="M6512 340 c0 -14 2 -19 5 -12 2 6 2 18 0 25 -3 6 -5 1 -5 -13z"/>
<path d="M744 330 c0 -13 4 -16 10 -10 7 7 7 13 0 20 -6 6 -10 3 -10 -10z"/>
<path d="M5791 334 c0 -11 3 -14 6 -6 3 7 2 16 -1 19 -3 4 -6 -2 -5 -13z"/>
<path d="M5870 325 c0 -14 2 -25 4 -25 2 0 6 11 8 25 3 14 1 25 -3 25 -5 0 -9
-11 -9 -25z"/>
<path d="M2765 319 c-5 -7 -3 -10 6 -7 8 3 20 -4 27 -16 12 -21 12 -20 10 4
-3 26 -31 39 -43 19z"/>
<path d="M6184 314 c3 -9 6 -22 6 -30 0 -9 4 -13 9 -10 11 7 2 56 -11 56 -6 0
-7 -7 -4 -16z"/>
<path d="M776 307 c3 -10 9 -15 12 -12 3 3 0 11 -7 18 -10 9 -11 8 -5 -6z"/>
<path d="M2720 304 c0 -9 5 -12 13 -8 7 4 9 3 4 -2 -5 -5 -14 -9 -19 -9 -6 0
-12 -6 -14 -13 -1 -7 0 -8 3 -2 3 8 11 6 23 -5 16 -14 17 -13 14 12 -1 16 -2
31 -3 36 -2 14 -21 7 -21 -9z"/>
<path d="M2677 290 c-19 -23 -21 -30 -8 -30 5 0 16 11 25 25 20 30 8 33 -17 5z"/>
<path d="M950 274 c-19 -10 -21 -14 -7 -14 9 0 17 -5 17 -11 0 -8 5 -8 15 1
12 10 18 10 33 -1 9 -7 14 -10 10 -5 -4 5 1 16 10 25 10 9 13 13 7 9 -7 -4
-15 -5 -18 -1 -4 3 -7 0 -7 -8 -1 -10 -3 -9 -11 4 -12 20 -15 20 -49 1z"/>
<path d="M6106 277 c3 -10 9 -15 12 -12 3 3 0 11 -7 18 -10 9 -11 8 -5 -6z"/>
<path d="M5951 245 c0 -35 2 -37 11 -19 7 15 7 28 -1 40 -9 16 -10 12 -10 -21z"/>
<path d="M874 259 c-9 -15 12 -17 30 -4 17 13 17 14 -4 12 -12 -1 -24 -5 -26
-8z"/>
<path d="M2810 266 c0 -2 7 -7 16 -10 8 -3 12 -2 9 4 -6 10 -25 14 -25 6z"/>
<path d="M6335 260 c-3 -5 3 -10 15 -10 12 0 18 5 15 10 -3 6 -10 10 -15 10
-5 0 -12 -4 -15 -10z"/>
<path d="M2770 250 c0 -5 5 -10 11 -10 5 0 7 5 4 10 -3 6 -8 10 -11 10 -2 0
-4 -4 -4 -10z"/>
<path d="M2716 244 c18 -8 5 -44 -13 -37 -12 5 -11 1 3 -16 l19 -22 3 23 c2
13 8 28 13 33 7 7 8 5 4 -6 -7 -19 20 -46 30 -29 4 6 1 9 -6 8 -6 -2 -14 3
-17 11 -3 9 0 11 9 7 8 -4 3 2 -10 13 -13 12 -28 21 -35 20 -8 0 -8 -2 0 -5z"/>
<path d="M867 215 c-4 -8 -3 -16 1 -19 4 -3 9 4 9 15 2 23 -3 25 -10 4z"/>
<path d="M951 227 c2 -1 12 -9 22 -16 15 -12 17 -12 11 3 -3 9 -13 16 -22 16
-8 0 -13 -1 -11 -3z"/>
<path d="M2796 217 c3 -10 9 -15 12 -12 3 3 0 11 -7 18 -10 9 -11 8 -5 -6z"/>
<path d="M891 194 c0 -11 3 -14 6 -6 3 7 2 16 -1 19 -3 4 -6 -2 -5 -13z"/>
<path d="M6390 196 c0 -2 9 -6 20 -9 11 -3 18 -1 14 4 -5 9 -34 13 -34 5z"/>
<path d="M1016 173 c-6 -14 -5 -15 5 -6 7 7 10 15 7 18 -3 3 -9 -2 -12 -12z"/>
<path d="M2910 180 c0 -5 5 -10 11 -10 5 0 7 5 4 10 -3 6 -8 10 -11 10 -2 0
-4 -4 -4 -10z"/>
<path d="M940 166 c0 -2 7 -6 15 -10 8 -3 15 -1 15 4 0 6 -7 10 -15 10 -8 0
-15 -2 -15 -4z"/>
<path d="M2740 162 c0 -5 7 -9 15 -9 8 0 12 4 9 9 -7 10 -24 10 -24 0z"/>
<path d="M2795 161 c-3 -5 -1 -12 5 -16 5 -3 10 1 10 9 0 18 -6 21 -15 7z"/>
<path d="M1137 153 c-10 -9 -9 -33 1 -33 4 0 8 9 8 20 0 23 0 22 -9 13z"/>
<path d="M2540 146 c7 -7 14 -6 21 1 9 9 7 12 -9 10 -14 -1 -18 -5 -12 -11z"/>
<path d="M2875 129 c-4 -6 -5 -12 -2 -15 2 -3 7 2 10 11 7 17 1 20 -8 4z"/>
<path d="M2540 119 c0 -5 5 -7 10 -4 6 3 10 8 10 11 0 2 -4 4 -10 4 -5 0 -10
-5 -10 -11z"/>
<path d="M1223 110 c-13 -5 -23 -14 -23 -20 0 -16 15 -12 35 10 20 22 20 23
-12 10z"/>
<path d="M1276 103 c-5 -15 -12 -20 -24 -16 -14 6 -15 5 -2 -9 13 -14 16 -14
28 4 8 10 12 24 9 31 -2 6 -7 2 -11 -10z"/>
<path d="M1156 88 c3 -4 9 -8 15 -8 5 0 9 4 9 8 0 5 -7 9 -15 9 -8 0 -12 -4
-9 -9z"/>
<path d="M1339 78 c0 -2 -2 -13 -3 -25 -2 -18 2 -22 21 -21 28 3 30 14 3 23
-11 4 -18 11 -15 16 4 5 4 9 1 9 -3 0 -6 -1 -7 -2z"/>
<path d="M2768 43 c7 -3 16 -2 19 1 4 3 -2 6 -13 5 -11 0 -14 -3 -6 -6z"/>
<path d="M2785 21 c-3 -5 -2 -12 3 -15 5 -3 9 1 9 9 0 17 -3 19 -12 6z"/>
<path d="M2816 13 c-6 -14 -5 -15 5 -6 7 7 10 15 7 18 -3 3 -9 -2 -12 -12z"/>
</g>
</svg>
